<svg width="411" height="320" viewBox="0 0 411 320" fill="none" xmlns="http://www.w3.org/2000/svg">
<path d="M318.028 284.336C405.287 269.135 409.609 226.142 387.514 187.743C359.98 139.892 385.826 106.879 350.462 99.5489C313.753 91.9357 313.282 184.774 228.797 183.787C103.946 182.314 208.031 303.51 318.028 284.336Z" fill="#F8F9FD"/>
<path d="M81.8156 31.5981C5.02698 44.9757 1.22444 82.809 20.668 116.6C44.8975 158.709 22.1528 187.76 53.273 194.211C85.5773 200.911 85.9918 119.213 160.339 120.082C270.208 121.377 178.613 14.7249 81.8156 31.5981Z" fill="#F8F9FD"/>
<path d="M59.876 46.7594C59.876 39.8581 65.4792 34.2549 72.3805 34.2549H320.282C327.183 34.2549 332.786 39.8581 332.786 46.7594V218.139C332.786 225.041 327.183 230.644 320.282 230.644H72.3805C65.4792 230.644 59.876 225.041 59.876 218.139V46.7594Z" fill="url(#paint0_linear_9_3642)"/>
<mask id="mask0_9_3642" style="mask-type:alpha" maskUnits="userSpaceOnUse" x="59" y="34" width="274" height="197">
<path d="M59.8751 46.7605C59.8751 39.857 65.479 34.256 72.3796 34.256H320.281C327.184 34.256 332.785 39.857 332.785 46.7605V218.138C332.785 225.042 327.184 230.643 320.281 230.643H72.3796C65.479 230.643 59.8751 225.042 59.8751 218.138V46.7605Z" fill="#FF0000"/>
<path d="M59.8762 46.7594C59.8762 39.8582 65.4795 34.2549 72.3807 34.2549H320.282C327.183 34.2549 332.786 39.8582 332.786 46.7594V218.139C332.786 225.041 327.183 230.644 320.282 230.644H72.3807C65.4795 230.644 59.8762 225.041 59.8762 218.139V46.7594Z" fill="url(#paint1_linear_9_3642)"/>
</mask>
<g mask="url(#mask0_9_3642)">
<path d="M97.4661 157.945C97.4661 154.111 100.579 150.998 104.413 150.998H263.324C267.158 150.998 270.271 154.111 270.271 157.945V258.676C270.271 262.51 267.158 265.623 263.324 265.623H104.413C100.579 265.623 97.4661 262.51 97.4661 258.676V157.945Z" fill="#BCC1C6"/>
</g>
<path d="M190.556 84.3217L106.272 152.428V165.123H195.158H284.044V152.428L199.761 84.3217C197.077 82.1595 193.239 82.1595 190.556 84.3217Z" fill="#105D5E"/>
<mask id="mask1_9_3642" style="mask-type:luminance" maskUnits="userSpaceOnUse" x="106" y="82" width="179" height="154">
<path d="M106.15 82.0828H284.165V235.784H106.15V82.0828Z" fill="white"/>
</mask>
<g mask="url(#mask1_9_3642)">
<g opacity="0.999997">
<path d="M267.655 235.506H126.137C122.09 235.506 118.808 232.224 118.808 228.177V89.4121C118.808 85.3656 122.09 82.0831 126.137 82.0831H267.655C271.701 82.0831 274.984 85.3656 274.984 89.4121V228.177C274.984 232.224 271.701 235.506 267.655 235.506Z" fill="#F8F9FD"/>
<path d="M231.481 120.978C231.481 141.159 215.087 157.519 194.862 157.519C174.647 157.519 158.252 141.159 158.252 120.978C158.252 100.789 174.647 84.4286 194.862 84.4286C215.087 84.4286 231.481 100.789 231.481 120.978Z" fill="white"/>
<path d="M221.191 130.803C220.574 130.803 220.114 130.638 219.802 130.308C219.489 129.969 219.333 129.535 219.333 128.996C219.333 128.371 219.506 127.868 219.862 127.494C220.218 127.121 220.713 126.93 221.356 126.93C221.964 126.93 222.424 127.077 222.737 127.381C223.049 127.676 223.206 128.119 223.206 128.701C223.206 129.344 223.032 129.847 222.667 130.229C222.303 130.612 221.816 130.803 221.191 130.803ZM221.976 125.822C221.698 125.822 221.472 125.761 221.29 125.639C221.108 125.509 221.021 125.318 221.021 125.057L221.038 124.884C221.281 123.329 221.594 121.558 222.002 119.569C222.402 117.59 222.775 115.87 223.122 114.429C223.348 113.534 223.956 113.091 224.937 113.091C225.832 113.091 226.274 113.378 226.274 113.942C226.274 114.073 226.248 114.212 226.214 114.359C225.849 115.835 225.371 117.616 224.772 119.708C224.173 121.801 223.609 123.616 223.061 125.162C222.914 125.605 222.549 125.822 221.976 125.822ZM213.471 128.552C213.94 128.552 214.34 128.3 214.67 127.788C215 127.267 215.156 126.52 215.156 125.53C215.156 124.766 215.017 124.193 214.739 123.802C214.461 123.411 214.131 123.22 213.74 123.22C213.245 123.22 212.829 123.472 212.499 123.984C212.177 124.488 212.012 125.243 212.012 126.242C212.012 127.032 212.151 127.614 212.429 127.996C212.707 128.369 213.054 128.552 213.471 128.552ZM213.245 130.808C212.421 130.808 211.726 130.599 211.144 130.191C210.571 129.783 210.137 129.245 209.841 128.576C209.555 127.907 209.407 127.195 209.407 126.431C209.407 125.372 209.607 124.434 209.998 123.609C210.397 122.775 210.936 122.133 211.613 121.664C212.299 121.204 213.063 120.969 213.905 120.969C214.73 120.969 215.434 121.178 216.016 121.586C216.597 121.994 217.032 122.532 217.327 123.201C217.622 123.87 217.761 124.582 217.761 125.346C217.761 126.405 217.561 127.343 217.162 128.168C216.754 128.993 216.215 129.644 215.521 130.104C214.835 130.573 214.079 130.808 213.245 130.808ZM207.778 113.175C207.457 113.175 207.092 113.748 206.693 114.903C206.293 116.058 205.937 117.491 205.633 119.201C205.321 120.903 205.156 122.544 205.13 124.116C206.12 122.492 206.901 120.86 207.483 119.227C208.065 117.595 208.36 116.11 208.36 114.755C208.36 113.704 208.169 113.175 207.778 113.175ZM208.579 130.094C207.875 130.572 207.085 130.806 206.191 130.806C204.966 130.806 204.063 130.25 203.473 129.139C202.882 128.027 202.587 126.586 202.587 124.823C202.587 123.13 202.804 121.202 203.247 119.031C203.681 116.86 204.324 115.002 205.184 113.447C206.035 111.893 207.051 111.112 208.232 111.112C208.9 111.112 209.43 111.424 209.812 112.041C210.194 112.657 210.385 113.543 210.385 114.698C210.385 116.348 209.925 118.267 209.004 120.446C208.093 122.626 206.842 124.788 205.279 126.933C205.375 127.498 205.531 127.906 205.757 128.149C205.974 128.392 206.269 128.514 206.634 128.514C207.198 128.514 207.702 128.349 208.127 128.027C208.561 127.697 208.744 127.784 209.404 126.994C209.577 126.794 209.282 129.625 208.579 130.094ZM200.5 113.175C200.178 113.175 199.814 113.748 199.414 114.903C199.015 116.058 198.659 117.491 198.355 119.201C198.042 120.903 197.877 122.544 197.851 124.116C198.841 122.492 199.623 120.86 200.204 119.227C200.786 117.595 201.081 116.11 201.081 114.755C201.081 113.704 200.89 113.175 200.5 113.175ZM202.585 128.991C201.986 129.729 202.004 129.625 201.3 130.094C200.597 130.572 199.807 130.806 198.912 130.806C197.688 130.806 196.785 130.25 196.194 129.139C195.604 128.027 195.308 126.586 195.308 124.823C195.308 123.13 195.526 121.202 195.968 119.031C196.403 116.86 197.045 115.002 197.905 113.447C198.756 111.893 199.772 111.112 200.953 111.112C201.622 111.112 202.151 111.424 202.533 112.041C202.915 112.657 203.106 113.543 203.106 114.698C203.106 116.348 202.646 118.267 201.726 120.446C200.814 122.626 199.563 124.788 198 126.933C198.096 127.498 198.252 127.906 198.478 128.149C198.695 128.392 198.99 128.514 199.355 128.514C199.92 128.514 200.423 128.349 200.849 128.027C201.283 127.697 201.83 127.142 202.499 126.343C202.664 126.152 202.855 128.687 202.585 128.991ZM190.529 123.032C190.017 123.032 189.582 123.328 189.226 123.927C188.87 124.526 188.697 125.247 188.697 126.098V126.141C189.513 125.941 190.164 125.655 190.633 125.264C191.111 124.873 191.345 124.422 191.345 123.909C191.345 123.64 191.267 123.432 191.128 123.276C190.981 123.111 190.781 123.032 190.529 123.032ZM195.588 128.51C195.076 129.135 194.728 129.483 193.791 130.012C192.853 130.542 191.854 130.803 190.777 130.803C189.318 130.803 188.19 130.412 187.382 129.622C186.574 128.823 186.175 127.746 186.175 126.365C186.175 125.41 186.375 124.516 186.783 123.691C187.182 122.866 187.738 122.206 188.459 121.719C189.171 121.233 189.978 120.99 190.882 120.99C191.689 120.99 192.34 121.233 192.827 121.711C193.313 122.188 193.556 122.84 193.556 123.656C193.556 124.62 193.209 125.436 192.523 126.131C191.837 126.817 190.673 127.364 189.032 127.763C189.379 128.406 190.039 128.719 191.012 128.719C191.637 128.719 192.349 128.501 193.148 128.067C193.947 127.624 194.633 127.051 195.223 126.348C195.31 126.235 195.336 126.895 195.44 127.494C195.519 127.972 195.71 128.38 195.588 128.51ZM181.583 114.238C181.279 114.238 180.958 114.516 180.619 115.071C180.272 115.627 179.951 116.382 179.647 117.346C179.343 118.302 179.1 119.352 178.917 120.49C180.029 120.03 180.845 119.378 181.375 118.527C181.904 117.685 182.165 116.591 182.165 115.262C182.165 114.941 182.113 114.689 182 114.507C181.887 114.324 181.748 114.238 181.583 114.238ZM184.398 126.058C184.581 126.058 184.72 126.136 184.824 126.301C184.928 126.475 184.98 126.7 184.98 126.996C184.98 127.534 184.85 127.968 184.589 128.281C183.209 129.965 181.741 130.808 180.187 130.808C178.841 130.808 177.764 130.287 176.956 129.245C176.149 128.203 175.749 126.709 175.749 124.764C175.749 124.286 175.767 123.817 175.81 123.349C174.898 123.514 173.891 123.635 172.814 123.722C172.085 123.774 171.599 123.809 171.329 123.826C171.052 125.242 170.661 126.978 170.166 129.036C169.871 130.243 169.315 130.851 168.499 130.851C167.604 130.851 167.161 130.443 167.161 129.636C167.161 129.462 167.196 129.21 167.265 128.889C167.743 126.987 168.116 125.372 168.394 124.052L167.396 124.095C166.935 124.095 166.597 124.017 166.388 123.852C166.18 123.696 166.076 123.435 166.076 123.071C166.076 122.619 166.215 122.28 166.475 122.063C166.736 121.846 167.179 121.725 167.786 121.699L168.889 121.655C169.254 119.701 169.436 118.208 169.436 117.174C169.436 116.523 169.341 116.08 169.141 115.846C168.95 115.603 168.69 115.49 168.368 115.49C167.396 115.49 166.302 116.297 165.077 117.93C164.895 118.164 164.695 118.277 164.478 118.277C164.278 118.277 164.113 118.19 163.974 118.008C163.835 117.826 163.766 117.6 163.766 117.322C163.766 116.888 163.94 116.436 164.287 115.95C164.895 115.099 165.668 114.404 166.597 113.849C167.535 113.302 168.472 113.032 169.436 113.032C170.339 113.032 171.034 113.336 171.529 113.953C172.024 114.578 172.267 115.533 172.267 116.844C172.267 117.999 172.102 119.562 171.772 121.534L173.813 121.429C174.69 121.386 175.437 121.317 176.062 121.221C176.314 119.693 176.696 118.26 177.208 116.923C177.721 115.594 178.363 114.509 179.127 113.675C179.891 112.841 180.742 112.424 181.689 112.424C182.384 112.424 182.931 112.702 183.339 113.249C183.738 113.797 183.938 114.517 183.938 115.403C183.938 118.85 182.184 121.238 178.667 122.576C178.624 123.131 178.606 123.705 178.606 124.304C178.606 125.763 178.789 126.796 179.145 127.412C179.509 128.02 180.013 128.324 180.664 128.324C181.237 128.324 181.758 128.177 182.227 127.881C182.705 127.577 183.235 127.065 183.834 126.344C183.999 126.153 184.19 126.058 184.398 126.058Z" fill="#105D5E"/>
</g>
</g>
<mask id="mask2_9_3642" style="mask-type:luminance" maskUnits="userSpaceOnUse" x="106" y="152" width="179" height="109">
<path d="M106.15 152.42H284.165V260.098H106.15V152.42Z" fill="white"/>
</mask>
<g mask="url(#mask2_9_3642)">
<path d="M284.044 152.59V252.774C284.044 256.82 280.762 260.094 276.715 260.094H113.601C109.555 260.094 106.272 256.82 106.272 252.774V152.59L196.131 223.466L284.044 152.59Z" fill="#105D5E"/>
<path d="M283.055 256.439L200.734 190.061C198.051 187.899 194.221 187.899 191.538 190.061L107.958 257.446C109.304 259.07 111.327 260.095 113.593 260.095H276.716C279.425 260.095 281.787 258.618 283.055 256.439Z" fill="#105D5E"/>
</g>
<path d="M262.285 29.4496L271.235 21.8257L277.296 28.9377L268.34 36.5557L262.285 29.4496Z" fill="white"/>
<path d="M152.023 29.8619L161.679 21.6369L168.217 29.3097L158.555 37.5283L152.023 29.8619Z" fill="#105D5E"/>
<path d="M146.316 284.934L155.265 277.31L161.326 284.422L152.37 292.04L146.316 284.934Z" fill="#105D5E"/>
<path d="M33.2214 91.4792L42.1712 83.8553L48.2318 90.9673L39.2756 98.5853L33.2214 91.4792Z" fill="#105D5E"/>
<path d="M221.828 234.097L224.83 225.937L231.315 228.328L228.313 236.488L221.828 234.097Z" fill="#E4E6EB"/>
<path d="M49.9925 183.4L58.636 184.339L57.8852 191.21L49.2416 190.271L49.9925 183.4Z" fill="#105D5E"/>
<path d="M354.698 137.998L363.342 138.937L362.591 145.809L353.947 144.87L354.698 137.998Z" fill="#105D5E"/>
<path d="M141.891 161.094L136.199 154.499L141.445 149.977L147.137 156.572L141.891 161.094Z" fill="#105D5E"/>
<path d="M310.088 96.1536L323.58 88.9179L329.553 100.045L316.062 107.281L310.088 96.1536Z" fill="#105D5E"/>
<mask id="mask3_9_3642" style="mask-type:luminance" maskUnits="userSpaceOnUse" x="261" y="182" width="62" height="87">
<path d="M261.587 182.813H322.373V268.782H261.587V182.813Z" fill="white"/>
</mask>
<g mask="url(#mask3_9_3642)">
<path d="M261.587 184.783C261.587 183.696 262.47 182.813 263.557 182.813H320.013C321.1 182.813 321.982 183.696 321.982 184.783V266.5C321.982 267.586 321.1 268.469 320.013 268.469H263.557C262.47 268.469 261.587 267.586 261.587 266.5V184.783Z" fill="white"/>
<path d="M279.823 247.281H299.205V249.958H279.823V247.281Z" fill="#C8C8C8" fill-opacity="0.47"/>
<path d="M274.353 239.722H307.375V242.987H274.353V239.722Z" fill="#C8C8C8" fill-opacity="0.47"/>
<path d="M291.373 231.85C281.977 231.85 274.353 224.26 274.353 214.899C274.353 205.538 281.977 197.949 291.373 197.949C300.768 197.949 308.393 205.538 308.393 214.899C308.393 224.26 300.768 231.85 291.373 231.85ZM291.373 222.773C295.74 222.773 299.275 219.248 299.275 214.897C299.275 210.556 295.74 207.03 291.373 207.03C287.005 207.03 283.47 210.556 283.47 214.897C283.47 219.248 287.005 222.773 291.373 222.773Z" fill="#E8E8E8"/>
<mask id="mask4_9_3642" style="mask-type:alpha" maskUnits="userSpaceOnUse" x="274" y="197" width="35" height="35">
<path d="M291.373 231.851C281.977 231.851 274.353 224.261 274.353 214.9C274.353 205.539 281.977 197.95 291.373 197.95C300.768 197.95 308.393 205.539 308.393 214.9C308.393 224.261 300.768 231.851 291.373 231.851ZM291.373 222.773C295.74 222.773 299.275 219.248 299.275 214.897C299.275 210.555 295.74 207.03 291.373 207.03C287.005 207.03 283.47 210.555 283.47 214.897C283.47 219.248 287.005 222.773 291.373 222.773Z" fill="#FF0000"/>
<path d="M291.373 231.85C281.977 231.85 274.353 224.26 274.353 214.899C274.353 205.538 281.977 197.949 291.373 197.949C300.768 197.949 308.393 205.538 308.393 214.899C308.393 224.26 300.768 231.85 291.373 231.85ZM291.373 222.773C295.74 222.773 299.275 219.248 299.275 214.897C299.275 210.556 295.74 207.03 291.373 207.03C287.005 207.03 283.47 210.556 283.47 214.897C283.47 219.248 287.005 222.773 291.373 222.773Z" fill="#E8E8E8"/>
</mask>
<g mask="url(#mask4_9_3642)">
<path d="M291.386 207.183L292.053 245.396L303.596 228.683L328.186 193.082L312.193 187.371L291.083 188.413L291.386 207.183Z" fill="#105D5E"/>
</g>
</g>
<g opacity="0.999999">
<path d="M315.621 127.827C319.928 118.761 330.792 114.897 339.866 119.204C348.949 123.503 352.813 134.349 348.506 143.414C344.599 151.629 335.325 155.571 326.867 153.045L321.856 156.492L321.361 150.327C314.406 145.29 311.8 135.868 315.621 127.827Z" fill="#105D5E"/>
</g>
<g opacity="0.999999">
<path d="M331.187 143.903L324.11 138.736L326.55 135.401L330.397 138.206L338.039 128.472L341.295 131.025L331.187 143.903Z" fill="#FFFEFE"/>
</g>
<mask id="mask5_9_3642" style="mask-type:luminance" maskUnits="userSpaceOnUse" x="89" y="197" width="64" height="68">
<path d="M89.6509 197.431H152.173V264.295H89.6509V197.431Z" fill="white"/>
</mask>
<g mask="url(#mask5_9_3642)">
<path d="M89.3615 211.41V261.028C89.3615 263.312 91.1069 265.162 93.2691 265.162H147.976C150.138 265.162 151.884 263.312 151.884 261.028V211.41H89.3615Z" fill="white"/>
<path d="M89.3615 198.299H151.884V215.345H89.3615V198.299Z" fill="#E8E8E8"/>
<path d="M97.1766 204.854H101.084V208.788H97.1766V204.854Z" fill="white"/>
<path d="M104.992 204.854H108.9V208.788H104.992V204.854Z" fill="white"/>
<path d="M142.115 208.788H114.761C113.684 208.788 112.807 207.902 112.807 206.817C112.807 205.731 113.684 204.854 114.761 204.854H142.115C143.191 204.854 144.068 205.731 144.068 206.817C144.068 207.902 143.191 208.788 142.115 208.788Z" fill="white"/>
<path d="M98.4791 247.473H110.202V254.677H98.4791V247.473Z" fill="#105D5E"/>
<path d="M114.11 227.059H125.833V254.679H114.11V227.059Z" fill="#105D5E"/>
<path d="M129.74 249.447H141.463V254.678H129.74V249.447Z" fill="#105D5E"/>
<path d="M143.417 257.297H96.5254C95.4486 257.297 94.5715 256.411 94.5715 255.326C94.5715 254.24 95.4486 253.363 96.5254 253.363H143.417C144.494 253.363 145.371 254.24 145.371 255.326C145.371 256.411 144.494 257.297 143.417 257.297Z" fill="#77959E"/>
</g>
<defs>
<linearGradient id="paint0_linear_9_3642" x1="352.681" y1="46.1749" x2="158.092" y2="269.695" gradientUnits="userSpaceOnUse">
<stop stop-color="#F8F9FD"/>
<stop offset="0.18" stop-color="#ECEFF5"/>
<stop offset="0.35" stop-color="#E1E6ED"/>
<stop offset="0.68" stop-color="#E2E5EC"/>
<stop offset="1" stop-color="#E3E5EA"/>
</linearGradient>
<linearGradient id="paint1_linear_9_3642" x1="352.681" y1="46.175" x2="158.092" y2="269.695" gradientUnits="userSpaceOnUse">
<stop stop-color="#F8F9FD"/>
<stop offset="0.18" stop-color="#ECEFF5"/>
<stop offset="0.35" stop-color="#E1E6ED"/>
<stop offset="0.68" stop-color="#E2E5EC"/>
<stop offset="1" stop-color="#E3E5EA"/>
</linearGradient>
</defs>
</svg>
