<svg width="236" height="185" viewBox="0 0 236 185" fill="none" xmlns="http://www.w3.org/2000/svg">
<path d="M203.09 39.9098H188.01C188.01 33.0852 185.299 26.5401 180.473 21.7143C175.648 16.8886 169.103 14.1776 162.278 14.1776C155.453 14.1776 148.908 16.8886 144.083 21.7143C139.257 26.5401 136.546 33.0852 136.546 39.9098H121.362C121.631 29.2334 126.061 19.0848 133.708 11.6289C141.354 4.17299 151.611 0 162.291 0C172.971 0 183.228 4.17299 190.874 11.6289C198.521 19.0848 202.951 29.2334 203.22 39.9098H203.09Z" fill="#105D5E"/>
<path d="M192.933 184.667H131.363C120.069 184.653 109.242 180.158 101.258 172.17C93.2744 164.181 88.7866 153.351 88.7797 142.057V45.5095C88.7797 44.5108 88.9764 43.5218 89.3586 42.5991C89.7407 41.6765 90.3009 40.838 91.0071 40.1319C91.7133 39.4257 92.5517 38.8655 93.4744 38.4833C94.3971 38.1011 95.386 37.9044 96.3847 37.9044H227.937C228.934 37.9044 229.922 38.1013 230.843 38.4838C231.765 38.8663 232.601 39.4269 233.305 40.1334C234.009 40.84 234.567 41.6785 234.946 42.601C235.326 43.5236 235.519 44.512 235.516 45.5095V142.057C235.509 153.351 231.021 164.181 223.038 172.17C215.054 180.158 204.227 184.653 192.933 184.667ZM103.964 53.1145V142.057C103.971 149.322 106.86 156.287 111.996 161.424C117.133 166.561 124.098 169.45 131.363 169.457H192.933C200.197 169.45 207.162 166.561 212.299 161.424C217.436 156.287 220.325 149.322 220.332 142.057V53.1145H103.964Z" fill="#105D5E"/>
<path d="M154.699 140.234C153.703 140.236 152.717 140.041 151.796 139.661C150.875 139.281 150.039 138.724 149.334 138.02L121.492 110.178C120.732 109.485 120.121 108.645 119.696 107.708C119.27 106.772 119.039 105.759 119.016 104.73C118.993 103.702 119.179 102.68 119.563 101.725C119.947 100.771 120.52 99.9043 121.248 99.1779C121.976 98.4514 122.844 97.8802 123.8 97.4989C124.755 97.1175 125.778 96.9339 126.806 96.9592C127.834 96.9845 128.847 97.2181 129.782 97.6459C130.718 98.0736 131.557 98.6867 132.248 99.448L154.699 121.899L192.047 84.5504C192.753 83.8441 193.592 83.2839 194.515 82.9016C195.437 82.5194 196.427 82.3227 197.425 82.3227C198.424 82.3227 199.413 82.5194 200.336 82.9016C201.259 83.2839 202.097 83.8441 202.804 84.5504C203.51 85.2567 204.07 86.0952 204.452 87.018C204.835 87.9408 205.031 88.9298 205.031 89.9287C205.031 90.9275 204.835 91.9165 204.452 92.8393C204.07 93.7621 203.51 94.6006 202.804 95.3069L160.09 138.02C159.382 138.727 158.541 139.286 157.616 139.666C156.691 140.046 155.699 140.239 154.699 140.234Z" fill="#E85613"/>
<path d="M22.2092 72.6221H8.06692C7.03251 72.6827 5.99663 72.5313 5.02285 72.1772C4.04906 71.823 3.15791 71.2736 2.4041 70.5626C1.65029 69.8517 1.04971 68.9943 0.639215 68.0429C0.228722 67.0915 0.0169678 66.0662 0.0169678 65.03C0.0169678 63.9938 0.228722 62.9686 0.639215 62.0172C1.04971 61.0658 1.65029 60.2083 2.4041 59.4973C3.15791 58.7864 4.04906 58.237 5.02285 57.8829C5.99663 57.5288 7.03251 57.3773 8.06692 57.4379H22.2092C23.2436 57.3773 24.2795 57.5288 25.2533 57.8829C26.2271 58.237 27.1182 58.7864 27.872 59.4973C28.6258 60.2083 29.2264 61.0658 29.6369 62.0172C30.0474 62.9686 30.2592 63.9938 30.2592 65.03C30.2592 66.0662 30.0474 67.0915 29.6369 68.0429C29.2264 68.9943 28.6258 69.8517 27.872 70.5626C27.1182 71.2736 26.2271 71.823 25.2533 72.1772C24.2795 72.5313 23.2436 72.6827 22.2092 72.6221Z" fill="#105D5E"/>
<path d="M96.3846 72.6221H45.1025C43.1658 72.5087 41.3457 71.6593 40.0147 70.248C38.6836 68.8367 37.9423 66.97 37.9423 65.0301C37.9423 63.0901 38.6836 61.2235 40.0147 59.8121C41.3457 58.4008 43.1658 57.5515 45.1025 57.438H96.3846C98.3213 57.5515 100.141 58.4008 101.472 59.8121C102.803 61.2235 103.545 63.0901 103.545 65.0301C103.545 66.97 102.803 68.8367 101.472 70.248C100.141 71.6593 98.3213 72.5087 96.3846 72.6221Z" fill="#105D5E"/>
<path d="M96.3846 109.606H58.4113C57.3769 109.666 56.341 109.515 55.3673 109.161C54.3935 108.807 53.5023 108.257 52.7485 107.546C51.9947 106.835 51.3941 105.978 50.9836 105.026C50.5731 104.075 50.3614 103.05 50.3614 102.014C50.3614 100.977 50.5731 99.9521 50.9836 99.0007C51.3941 98.0493 51.9947 97.1919 52.7485 96.4809C53.5023 95.77 54.3935 95.2206 55.3673 94.8665C56.341 94.5123 57.3769 94.3609 58.4113 94.4215H96.3846C98.3213 94.535 100.141 95.3843 101.472 96.7956C102.803 98.2069 103.545 100.074 103.545 102.014C103.545 103.954 102.803 105.82 101.472 107.232C100.141 108.643 98.3213 109.492 96.3846 109.606Z" fill="#105D5E"/>
<path d="M96.3847 146.589H77.3981C76.3637 146.65 75.3278 146.498 74.354 146.144C73.3802 145.79 72.4891 145.241 71.7353 144.53C70.9815 143.819 70.3809 142.961 69.9704 142.01C69.5599 141.058 69.3481 140.033 69.3481 138.997C69.3481 137.961 69.5599 136.936 69.9704 135.984C70.3809 135.033 70.9815 134.175 71.7353 133.464C72.4891 132.753 73.3802 132.204 74.354 131.85C75.3278 131.496 76.3637 131.344 77.3981 131.405H96.3847C98.3214 131.518 100.141 132.368 101.473 133.779C102.804 135.19 103.545 137.057 103.545 138.997C103.545 140.937 102.804 142.804 101.473 144.215C100.141 145.626 98.3214 146.476 96.3847 146.589Z" fill="#105D5E"/>
<path d="M35.6222 109.605C33.6097 109.605 31.6793 108.808 30.2538 107.387C28.8283 105.967 28.0241 104.039 28.0172 102.026C28.0162 101.527 28.0686 101.03 28.1734 100.542C28.2568 100.05 28.3966 99.5693 28.5902 99.1094C28.7772 98.6514 29.013 98.2148 29.2934 97.8072C29.5778 97.3877 29.9004 96.9954 30.257 96.6352C31.1399 95.753 32.2276 95.1033 33.4229 94.7443C34.6183 94.3852 35.8839 94.328 37.1068 94.5777C37.5894 94.6646 38.0611 94.8044 38.5132 94.9944C39.4851 95.3561 40.3718 95.9147 41.1177 96.6352C41.4737 96.9891 41.7882 97.3822 42.0553 97.8072C42.3453 98.2089 42.5817 98.6467 42.7585 99.1094C42.9488 99.5727 43.097 100.052 43.2013 100.542C43.2973 101.031 43.341 101.528 43.3315 102.026C43.3398 102.524 43.2962 103.022 43.2013 103.511C43.0894 103.99 42.9414 104.461 42.7585 104.917C42.3813 105.843 41.8235 106.684 41.1177 107.392C40.7717 107.746 40.3873 108.06 39.9717 108.329C39.5577 108.614 39.112 108.85 38.6434 109.032C38.1878 109.219 37.7174 109.367 37.237 109.475C36.7034 109.564 36.1632 109.608 35.6222 109.605Z" fill="#105D5E"/>
</svg>
