<svg width="430" height="376" viewBox="0 0 430 376" fill="none" xmlns="http://www.w3.org/2000/svg">
<path d="M465 0H-35V376H465V0Z" fill="white"/>
<path d="M73.9981 324.372H217.474C243.211 303.561 259.66 271.789 259.66 236.187C259.66 173.495 208.655 122.673 145.736 122.673C82.817 122.673 31.8104 173.495 31.8104 236.187C31.8104 271.789 48.2604 303.561 73.9981 324.372Z" fill="#ECF3FE"/>
<path d="M118.275 318.338C118.275 318.338 96.8538 200.551 69.3915 184.281C69.3915 184.281 53.5311 188.981 84.5519 248.834C115.573 308.687 118.275 318.338 118.275 318.338Z" fill="white"/>
<path d="M118.445 322.873C118.445 322.873 75.6 230.216 49.4613 222.615C49.4613 222.615 37.3774 229.86 75.7651 272.67C114.153 315.481 118.445 322.873 118.445 322.873Z" fill="white"/>
<path d="M158.981 327.411H323.019C360.764 301.435 385.498 258.026 385.498 208.859C385.498 129.343 320.804 64.8816 240.999 64.8816C161.194 64.8816 96.5019 129.344 96.5019 208.859C96.5019 258.03 121.236 301.435 158.981 327.411Z" fill="#ECF3FE"/>
<path d="M137.428 251.083L136.446 249.363L133.71 244.569L131.665 240.985L130.386 238.742L128.83 238.554L120.144 237.483C120.13 237.476 120.115 237.473 120.099 237.474L119.83 237.447L110.534 236.299L89.717 233.724L84.1217 233.034H84.0858L73.1717 231.687L68.3604 231.093L65.1057 230.692C65.0749 230.684 65.0431 230.681 65.0113 230.683H64.9651L51.9962 229.078L50.9509 222.855L50.5802 220.643C50.9119 220.162 51.1417 219.618 51.2557 219.045C51.3915 218.359 51.363 217.651 51.1726 216.977C51.1726 216.975 51.1716 216.972 51.1699 216.971C51.1681 216.969 51.1657 216.968 51.1632 216.968C50.9385 216.179 50.5003 215.467 49.8967 214.909C49.2931 214.351 48.5472 213.97 47.7406 213.806L30.6406 210.432C30.3539 210.377 30.0627 210.349 29.7708 210.349C28.6625 210.351 27.5947 210.764 26.7746 211.507C25.9544 212.25 25.4404 213.27 25.332 214.369C25.2237 215.468 25.5288 216.568 26.1882 217.455C26.8477 218.343 27.8144 218.955 28.9009 219.172L42.3443 221.827L42.5934 223.32L44.2594 233.203C44.2748 233.355 44.2997 233.506 44.334 233.656L53.3641 287.47C53.5255 288.438 54.026 289.317 54.7767 289.952C55.5274 290.586 56.4796 290.935 57.4641 290.937H121.541L120.162 296.312H49.3679C48.2745 296.328 47.2314 296.772 46.464 297.548C45.6966 298.325 45.2664 299.371 45.2664 300.46C45.2664 301.55 45.6966 302.596 46.464 303.372C47.2314 304.148 48.2745 304.592 49.3679 304.609H57.884V308.678C56.5089 309.561 55.4576 310.864 54.8874 312.392C54.3171 313.92 54.2586 315.59 54.7205 317.154C55.1824 318.718 56.1399 320.091 57.4499 321.067C58.7598 322.043 60.3518 322.571 61.9877 322.571C63.6237 322.571 65.2156 322.043 66.5256 321.067C67.8355 320.091 68.7931 318.718 69.255 317.154C69.7169 315.59 69.6583 313.92 69.0881 312.392C68.5179 310.864 67.4666 309.561 66.0915 308.678V304.609H107.358V308.678C105.983 309.561 104.932 310.864 104.362 312.392C103.792 313.92 103.733 315.59 104.195 317.154C104.657 318.718 105.614 320.091 106.924 321.067C108.234 322.043 109.826 322.571 111.462 322.571C113.098 322.571 114.69 322.043 116 321.067C117.31 320.091 118.268 318.718 118.729 317.154C119.191 315.59 119.133 313.92 118.563 312.392C117.992 310.864 116.941 309.561 115.566 308.678V304.609H123.396C124.319 304.608 125.215 304.302 125.943 303.738C126.671 303.173 127.19 302.383 127.417 301.493L130.625 288.964L131.234 286.567L138.97 256.346L139.419 254.597L137.428 251.083ZM60.9896 282.645L53.7887 239.748L53.4311 237.615L56.3906 237.982L60.8783 238.537H60.8877L62.7868 254.528L64.0453 265.127L66.1264 282.645H60.9896ZM74.5085 282.645L72.4264 265.127L70.634 250.016L69.6453 241.704L69.3934 239.588L78.3943 240.694L79.599 240.843L79.6689 242.892L79.7311 244.781L79.8255 247.61L80.4104 265.127L80.9962 282.645H74.5085ZM96.4821 247.186L95.8887 265.127L95.3085 282.645H89.3321L88.7443 265.127L88.1566 247.61L88.034 243.971L87.9632 241.876L90.3472 242.171L96.6226 242.946L96.4821 247.186ZM112.269 264.725L112.216 265.127L109.883 282.645H103.637L104.22 265.127L104.669 251.605L104.73 249.782L104.837 246.57L104.855 246.046L104.924 243.969L111.162 244.738L113.088 244.976L114.87 245.195L112.269 264.725ZM123.659 282.645H118.275L121.226 260.522L122.861 248.262L123.134 246.21L125.46 246.492L132.692 247.385L123.659 282.645Z" fill="#105D5E"/>
<path d="M301.415 75.8317L273.832 82.6702L247.353 59.754C247.713 57.3981 247.283 54.9896 246.129 52.902C244.976 50.8145 243.164 49.1643 240.973 48.2074C238.783 47.2506 236.337 47.0404 234.014 47.6096C231.692 48.1787 229.623 49.4953 228.128 51.3554C226.633 53.2154 225.795 55.5149 225.745 57.8975C225.695 60.28 226.435 62.6124 227.851 64.5332C229.266 66.4539 231.278 67.8557 233.575 68.5212C235.871 69.1866 238.324 69.0787 240.553 68.214C240.564 68.2083 240.577 68.2017 240.594 68.1914L260.994 85.8502L198.926 101.238L208.643 76.1128C208.66 76.1137 208.677 76.1137 208.694 76.1128C211.079 75.8379 213.305 74.7865 215.028 73.1219C216.751 71.4572 217.875 69.2723 218.225 66.9064C218.574 64.5404 218.13 62.1256 216.961 60.0368C215.792 57.948 213.964 56.302 211.761 55.3543C209.557 54.4065 207.101 54.2101 204.774 54.7954C202.447 55.3807 200.379 56.715 198.891 58.5913C197.402 60.4675 196.577 62.7808 196.544 65.172C196.51 67.5633 197.269 69.8988 198.704 71.816L186.088 104.427L158.51 111.264C157.82 111.435 157.17 111.739 156.598 112.161C156.026 112.582 155.543 113.111 155.177 113.718C154.81 114.326 154.567 114.999 154.462 115.7C154.357 116.4 154.391 117.115 154.563 117.803L157.488 129.518C157.659 130.205 157.965 130.852 158.388 131.422C158.811 131.992 159.342 132.473 159.951 132.837C160.56 133.202 161.236 133.444 161.939 133.549C162.642 133.653 163.359 133.619 164.049 133.447L168.527 132.337L192.134 187.217C192.642 188.394 193.553 189.353 194.704 189.923C195.855 190.493 197.173 190.637 198.421 190.33L303.342 164.312C304.589 164.002 305.685 163.26 306.434 162.218C307.183 161.177 307.535 159.904 307.428 158.627L302.475 99.1249L306.954 98.0148C307.644 97.8441 308.293 97.5396 308.865 97.1187C309.437 96.6979 309.92 96.1688 310.287 95.5619C310.653 94.9549 310.896 94.282 311.002 93.5814C311.108 92.8808 311.074 92.1664 310.902 91.479L307.977 79.7637C307.806 79.076 307.5 78.4287 307.078 77.8588C306.655 77.2889 306.124 76.8075 305.514 76.4424C304.905 76.0772 304.229 75.8353 303.526 75.7305C302.822 75.6257 302.105 75.6601 301.415 75.8317ZM211.557 121.665L224.322 172.783L218.07 174.332C212.216 156.66 204.324 132.815 201.489 124.161L211.557 121.665ZM222.062 119.06L230.249 117.031L243.019 168.149L234.831 170.179L222.062 119.06ZM240.755 114.425L248.935 112.398L261.7 163.516L253.519 165.543L240.755 114.425ZM259.447 109.792L269.512 107.297C271.077 116.266 275.327 141.019 278.463 159.36L272.211 160.91L259.447 109.792ZM179.177 129.693L190.958 126.771C193.085 133.3 198.637 150.104 207.531 176.946L200.275 178.744L179.177 129.693ZM296.253 154.95L289.003 156.747C284.237 128.882 281.234 111.446 280.041 104.686L291.823 101.764L296.253 154.95Z" fill="white"/>
<g style="mix-blend-mode:multiply" opacity="0.2">
<path d="M273.532 208.313C272.516 205.101 262.791 201.195 262.791 201.195L259.474 170.559C262.75 169.901 265.308 167.582 265.24 162.595C265.073 150.192 259.496 150.418 262.547 139.255C263.622 135.328 262.808 131.751 260.984 128.844L261.693 128.054C261.793 127.945 261.857 127.808 261.876 127.661C264.201 127.372 266.732 125.866 265.294 120.258C263.572 113.537 256.866 117.167 253.063 119.89L252.564 119.468C252.312 119.256 251.904 119.312 251.649 119.593L250.839 120.495C250.585 120.777 250.585 121.176 250.839 121.389L250.976 121.505L250.754 121.693C248.19 121.303 245.404 121.903 242.953 123.393C239.978 125.201 235.903 127.956 235.747 129.56C235.595 131.125 235.858 131.595 236.814 131.608C236.637 132.062 236.486 132.525 236.361 132.996C235.179 137.46 236.662 141.511 239.726 142.95C239.499 143.884 239.194 145.121 238.972 146.022L238.679 147.204C228.12 146.64 214.199 157.074 214.199 157.074L214.967 158.21L213.997 159.027L209.458 162.86C209.458 162.86 198.125 149.125 197.888 147.998C197.65 146.871 197.782 143.956 196.452 142.959C196.271 142.831 196.077 142.722 195.874 142.635L198.663 137.682L185.708 131.918L180.539 141.097L189.078 144.896C189.685 146.788 192.042 148.691 193.328 149.57C194.979 150.698 205.147 168.66 205.147 168.66C205.147 168.66 208.841 170.941 211.958 169.307C212.792 168.868 213.757 168.289 214.723 167.675C216.515 166.533 218.313 165.274 219.277 164.586L219.687 165.192L226.308 160.53C227.472 160.832 224.385 182.629 223.241 186.99C223.007 187.878 223.075 188.532 223.363 189.009C222.797 189.089 222.1 189.128 221.616 188.869C221.507 188.81 221.361 188.464 221.174 187.91C219.924 184.221 216.835 171.246 210.42 172.03C203.051 172.933 181.119 190.898 181.119 190.898L181.496 191.758L177.808 194.649L172.83 198.549C172.646 198.471 172.457 198.405 172.264 198.352C172.122 198.36 164.347 202.352 162.189 202.656C160.31 202.919 158.604 203.852 158.84 205.165C158.883 205.384 158.966 205.593 159.084 205.782C160.077 207.42 179.989 209.895 182.369 207.662C183.029 207.041 183.431 206.094 183.663 205.054C184.267 202.352 183.742 199.008 183.742 199.008C183.709 198.967 183.345 198.094 182.61 197.692L183.167 197.271L183.754 196.827L183.924 197.21C183.924 197.21 203.526 185.033 204.89 187.664C205.896 189.604 207.514 199.404 209.921 203.803C210.398 204.672 210.905 205.329 211.444 205.675C206.991 210.731 203.087 215.19 202.682 216.039C201.716 218.069 199.261 250.314 199.261 250.314H199.802L199.33 256.375C198.368 256.281 197.658 256.205 197.595 256.226C197.429 256.277 189.388 262.98 186.908 263.95C184.754 264.796 182.999 266.33 183.682 267.71C183.801 267.941 183.963 268.148 184.159 268.319C185.836 269.84 210.274 266.721 212.431 263.555C213.031 262.674 213.222 261.509 213.186 260.29C213.091 257.122 211.454 253.577 211.454 253.577C211.381 253.526 210.02 251.824 208.341 252.583C207.755 252.846 207.329 253.372 206.941 253.958L207.42 251.113L207.555 250.312H207.904L213.721 221.335C213.721 221.335 225.428 214.457 236.01 210.85C241.589 208.949 244.546 202.907 246.093 197.622C246.815 195.124 247.327 192.571 247.622 189.989H247.639C249.874 190.326 249.372 172.36 249.235 168.384C249.911 168.805 250.62 169.172 251.355 169.48C251.478 170.232 251.624 171.118 251.788 172.112C253.526 182.734 257.315 205.81 257.731 208.08C258.274 211.041 261.483 213.549 262.443 212.76C263.404 211.97 261.189 209.237 261.552 208.475C261.915 207.713 262.557 207.772 264.691 209.066C266.825 210.361 267.729 214.591 269.227 214.591C270.725 214.591 267.888 210.674 268.582 210.561C269.276 210.448 271.546 215.409 272.774 214.312C274.003 213.214 270.01 208.672 270.436 208.448C270.861 208.224 271.794 209.858 272.641 211.069C273.487 212.279 274.548 211.527 273.532 208.313ZM245.387 147.768L246.782 143.35L247.348 141.572C247.467 141.478 247.585 141.384 247.701 141.283C247.834 141.911 247.87 142.472 247.774 142.919C247.586 143.833 247.141 145.638 246.682 147.874C246.421 147.908 246.273 147.936 246.273 147.936L245.387 147.768Z" fill="#105D5E"/>
</g>
<g style="mix-blend-mode:multiply" opacity="0.2">
<path d="M321.573 208.638H150.861C145.475 208.638 140.007 212.757 138.648 217.836L136.321 226.54L130.686 247.613L113.436 312.125C112.077 317.201 115.343 321.323 120.73 321.323H291.442C296.828 321.323 302.297 317.204 303.656 312.125L320.906 247.613L326.541 226.54L328.868 217.836C330.225 212.757 326.959 208.638 321.573 208.638Z" fill="#105D5E"/>
</g>
<path d="M209.042 329.843C300.52 329.843 374.676 326.722 374.676 322.871C374.676 319.021 300.52 315.899 209.042 315.899C117.565 315.899 43.4085 319.021 43.4085 322.871C43.4085 326.722 117.565 329.843 209.042 329.843Z" fill="#D7E4F9"/>
<path d="M129.134 151.708C139.715 141.165 139.715 124.071 129.134 113.528C118.553 102.984 101.397 102.984 90.8155 113.528C80.2341 124.071 80.2341 141.165 90.8155 151.708C101.397 162.251 118.553 162.251 129.134 151.708Z" fill="#105D5E"/>
<path d="M125.377 133.092L119.946 131.334L117.881 124.622C118.194 124.259 118.378 123.803 118.404 123.325C118.43 122.847 118.298 122.374 118.027 121.979C117.755 121.583 117.361 121.288 116.905 121.139C116.448 120.99 115.955 120.995 115.502 121.154C115.048 121.312 114.66 121.615 114.397 122.016C114.134 122.416 114.011 122.892 114.047 123.37C114.084 123.847 114.277 124.299 114.597 124.656C114.917 125.013 115.347 125.254 115.819 125.343H115.828L117.42 130.513L105.2 126.557L109.54 123.305C109.543 123.308 109.546 123.31 109.549 123.311C109.984 123.517 110.476 123.574 110.947 123.473C111.418 123.372 111.843 123.119 112.155 122.753C112.467 122.387 112.649 121.929 112.673 121.449C112.697 120.969 112.561 120.495 112.287 120.1C112.013 119.705 111.616 119.412 111.157 119.265C110.698 119.118 110.204 119.126 109.75 119.287C109.296 119.449 108.909 119.755 108.647 120.159C108.386 120.563 108.266 121.041 108.306 121.519L102.675 125.739L97.2453 123.981C97.1095 123.937 96.9662 123.92 96.8238 123.931C96.6813 123.942 96.5425 123.981 96.4151 124.046C96.2878 124.11 96.1746 124.199 96.0818 124.308C95.989 124.416 95.9186 124.541 95.8745 124.677L95.1198 126.984C95.0309 127.257 95.0545 127.554 95.1854 127.81C95.3163 128.066 95.5438 128.26 95.8179 128.349L96.7 128.631L94.8642 140.485C94.825 140.739 94.8778 140.999 95.0131 141.218C95.1484 141.437 95.3574 141.602 95.6028 141.681L116.263 148.369C116.509 148.448 116.775 148.438 117.014 148.34C117.252 148.242 117.449 148.062 117.567 147.834L123.075 137.169L123.957 137.451C124.092 137.495 124.236 137.512 124.378 137.501C124.52 137.489 124.659 137.451 124.786 137.386C124.914 137.321 125.027 137.232 125.119 137.124C125.212 137.016 125.282 136.89 125.326 136.755L126.081 134.449C126.167 134.176 126.142 133.88 126.01 133.626C125.878 133.372 125.651 133.18 125.377 133.092ZM105.172 131.378L101.887 141.442L100.66 141.043C101.549 137.412 102.75 132.512 103.191 130.736L105.172 131.378ZM107.241 132.048L108.852 132.57L105.566 142.634L103.955 142.111L107.241 132.048ZM110.92 133.239L112.53 133.761L109.245 143.825L107.635 143.303L110.92 133.239ZM114.599 134.431L116.58 135.072C115.89 136.764 113.972 141.435 112.548 144.893L111.322 144.494L114.599 134.431ZM98.7962 129.315L101.116 130.067C100.781 131.405 99.934 134.861 98.584 140.374L97.1557 139.911L98.7962 129.315ZM116.051 146.027L114.624 145.565C116.786 140.311 118.136 137.022 118.654 135.743L120.974 136.495L116.051 146.027Z" fill="white"/>
<path d="M290.805 260.178C290.57 260.178 290.34 260.107 290.147 259.973C289.954 259.84 289.806 259.651 289.723 259.432C289.64 259.213 289.626 258.974 289.683 258.747C289.739 258.52 289.864 258.315 290.041 258.161C291.173 257.168 292.319 256.135 293.442 255.091C293.667 254.882 293.965 254.771 294.271 254.782C294.578 254.792 294.867 254.924 295.076 255.147C295.286 255.37 295.397 255.667 295.386 255.973C295.376 256.278 295.244 256.567 295.02 256.775C293.879 257.835 292.718 258.884 291.567 259.891C291.357 260.076 291.085 260.178 290.805 260.178ZM297.567 253.893C297.337 253.894 297.112 253.826 296.921 253.699C296.73 253.572 296.581 253.39 296.494 253.178C296.407 252.967 296.385 252.733 296.432 252.509C296.478 252.285 296.59 252.079 296.755 251.919C297.832 250.858 298.917 249.757 299.978 248.658C300.191 248.438 300.483 248.31 300.79 248.304C301.097 248.298 301.393 248.414 301.615 248.626C301.836 248.838 301.964 249.129 301.97 249.434C301.976 249.74 301.86 250.036 301.647 250.256C300.572 251.373 299.472 252.485 298.379 253.56C298.163 253.774 297.871 253.894 297.567 253.894V253.893ZM303.97 247.244C303.746 247.243 303.527 247.178 303.339 247.056C303.151 246.935 303.003 246.761 302.913 246.557C302.822 246.353 302.793 246.127 302.829 245.906C302.865 245.686 302.964 245.481 303.115 245.316C304.138 244.196 305.165 243.045 306.167 241.891C306.266 241.777 306.387 241.683 306.523 241.615C306.659 241.548 306.807 241.507 306.958 241.497C307.11 241.486 307.262 241.505 307.406 241.553C307.55 241.6 307.683 241.676 307.798 241.775C307.912 241.874 308.006 241.995 308.074 242.13C308.142 242.265 308.183 242.413 308.194 242.563C308.204 242.714 308.185 242.866 308.137 243.009C308.089 243.153 308.014 243.286 307.914 243.4C306.9 244.566 305.86 245.733 304.825 246.867C304.717 246.985 304.585 247.08 304.438 247.145C304.29 247.21 304.131 247.244 303.97 247.244ZM310.024 240.277C309.806 240.276 309.593 240.214 309.408 240.097C309.224 239.98 309.077 239.814 308.984 239.617C308.891 239.42 308.855 239.201 308.882 238.986C308.908 238.77 308.996 238.566 309.134 238.397C310.098 237.232 311.069 236.031 312.017 234.825C312.209 234.594 312.485 234.446 312.785 234.414C313.085 234.382 313.386 234.468 313.623 234.654C313.86 234.84 314.015 235.111 314.055 235.409C314.094 235.707 314.015 236.008 313.835 236.249C312.875 237.465 311.893 238.679 310.917 239.859C310.808 239.99 310.672 240.096 310.518 240.168C310.364 240.24 310.195 240.278 310.024 240.277ZM315.741 233.034C315.527 233.034 315.316 232.974 315.134 232.861C314.951 232.749 314.804 232.588 314.708 232.396C314.612 232.205 314.571 231.991 314.591 231.778C314.61 231.565 314.689 231.361 314.818 231.19C315.728 229.982 316.643 228.739 317.538 227.494C317.626 227.371 317.738 227.267 317.867 227.187C317.996 227.107 318.139 227.053 318.289 227.029C318.439 227.004 318.592 227.009 318.74 227.043C318.888 227.078 319.028 227.141 319.151 227.229C319.274 227.317 319.379 227.429 319.459 227.557C319.539 227.686 319.593 227.829 319.618 227.978C319.643 228.127 319.638 228.28 319.603 228.427C319.569 228.574 319.505 228.713 319.417 228.836C318.513 230.094 317.588 231.351 316.668 232.573C316.56 232.716 316.42 232.833 316.259 232.912C316.099 232.992 315.921 233.034 315.741 233.034ZM321.129 225.543C320.919 225.543 320.713 225.485 320.533 225.377C320.353 225.269 320.206 225.113 320.108 224.928C320.01 224.743 319.964 224.534 319.976 224.325C319.988 224.116 320.058 223.914 320.176 223.741C321.034 222.491 321.894 221.209 322.734 219.93C322.815 219.799 322.922 219.685 323.047 219.596C323.173 219.506 323.316 219.443 323.467 219.409C323.618 219.375 323.774 219.372 323.926 219.4C324.078 219.427 324.223 219.485 324.352 219.569C324.482 219.654 324.593 219.763 324.679 219.891C324.765 220.019 324.825 220.163 324.855 220.314C324.884 220.465 324.883 220.621 324.851 220.771C324.819 220.922 324.757 221.065 324.669 221.191C323.82 222.484 322.951 223.779 322.084 225.045C321.978 225.199 321.836 225.325 321.67 225.411C321.504 225.498 321.319 225.543 321.132 225.543H321.129ZM326.191 217.835C325.985 217.835 325.783 217.78 325.605 217.675C325.427 217.571 325.281 217.421 325.181 217.241C325.081 217.061 325.031 216.858 325.037 216.652C325.042 216.447 325.103 216.246 325.212 216.072C326.018 214.787 326.824 213.47 327.61 212.16C327.684 212.022 327.785 211.901 327.907 211.803C328.029 211.705 328.17 211.633 328.321 211.592C328.472 211.55 328.629 211.539 328.785 211.56C328.94 211.58 329.089 211.633 329.224 211.713C329.358 211.793 329.475 211.899 329.567 212.026C329.658 212.152 329.724 212.296 329.758 212.448C329.792 212.6 329.795 212.758 329.767 212.911C329.738 213.065 329.678 213.211 329.591 213.341C328.798 214.664 327.988 215.994 327.169 217.289C327.065 217.454 326.921 217.59 326.75 217.685C326.579 217.78 326.387 217.83 326.191 217.83V217.835ZM330.932 209.922C330.73 209.922 330.531 209.869 330.355 209.768C330.18 209.667 330.034 209.522 329.933 209.348C329.831 209.173 329.777 208.975 329.777 208.774C329.776 208.572 329.829 208.374 329.929 208.199C330.684 206.883 331.439 205.535 332.168 204.193C332.24 204.061 332.339 203.943 332.457 203.848C332.575 203.753 332.71 203.682 332.856 203.639C333.002 203.596 333.154 203.582 333.305 203.598C333.456 203.614 333.602 203.66 333.736 203.732C333.869 203.804 333.987 203.902 334.082 204.02C334.178 204.137 334.249 204.272 334.292 204.417C334.335 204.562 334.349 204.715 334.333 204.865C334.317 205.015 334.272 205.161 334.199 205.294C333.459 206.649 332.698 208.01 331.935 209.336C331.834 209.513 331.688 209.659 331.512 209.761C331.336 209.863 331.136 209.917 330.932 209.917V209.922ZM335.353 201.827C335.154 201.827 334.959 201.776 334.786 201.679C334.614 201.581 334.469 201.442 334.366 201.272C334.263 201.103 334.205 200.911 334.198 200.713C334.192 200.516 334.236 200.32 334.327 200.144C335.03 198.795 335.73 197.418 336.408 196.054C336.659 195.546 336.909 195.039 337.157 194.531C337.302 194.276 337.539 194.086 337.82 193.999C338.101 193.912 338.405 193.935 338.67 194.063C338.934 194.192 339.14 194.416 339.244 194.69C339.349 194.964 339.344 195.268 339.232 195.539C338.98 196.051 338.729 196.563 338.477 197.075C337.792 198.454 337.086 199.843 336.376 201.205C336.279 201.391 336.131 201.547 335.951 201.656C335.771 201.765 335.564 201.823 335.353 201.823V201.827ZM340.176 192.023C339.983 192.023 339.792 191.973 339.622 191.88C339.452 191.787 339.309 191.653 339.204 191.491C339.1 191.328 339.038 191.142 339.025 190.949C339.011 190.756 339.047 190.563 339.127 190.388C339.768 189.009 340.403 187.601 341.014 186.207C341.141 185.932 341.371 185.719 341.654 185.611C341.937 185.504 342.252 185.512 342.529 185.634C342.807 185.755 343.025 185.98 343.138 186.26C343.251 186.541 343.249 186.854 343.132 187.132C342.511 188.542 341.87 189.961 341.224 191.354C341.13 191.552 340.983 191.72 340.797 191.838C340.612 191.956 340.396 192.018 340.176 192.019V192.023ZM343.89 183.584C343.699 183.584 343.511 183.537 343.343 183.447C343.175 183.358 343.032 183.228 342.926 183.07C342.821 182.912 342.756 182.73 342.738 182.541C342.72 182.352 342.749 182.161 342.823 181.986C343.408 180.576 343.988 179.148 344.543 177.734C344.655 177.45 344.876 177.221 345.156 177.099C345.437 176.976 345.756 176.97 346.041 177.081C346.326 177.193 346.556 177.413 346.679 177.692C346.802 177.972 346.808 178.289 346.696 178.574C346.135 180.002 345.55 181.447 344.958 182.87C344.87 183.08 344.722 183.26 344.532 183.387C344.342 183.514 344.118 183.582 343.89 183.582V183.584ZM347.261 175.003C347.125 175.003 346.99 174.979 346.862 174.931C346.575 174.826 346.341 174.611 346.212 174.333C346.084 174.056 346.071 173.739 346.176 173.453C346.706 172.021 347.225 170.569 347.722 169.135C347.771 168.992 347.849 168.86 347.949 168.747C348.05 168.634 348.172 168.541 348.309 168.475C348.445 168.409 348.593 168.37 348.745 168.361C348.897 168.352 349.048 168.373 349.192 168.422C349.335 168.472 349.468 168.549 349.581 168.649C349.695 168.749 349.788 168.871 349.854 169.007C349.921 169.143 349.96 169.291 349.969 169.442C349.978 169.593 349.957 169.744 349.908 169.887C349.406 171.336 348.881 172.801 348.346 174.251C348.263 174.47 348.116 174.659 347.922 174.793C347.729 174.926 347.499 174.998 347.264 174.998L347.261 175.003ZM350.274 166.291C350.092 166.29 349.913 166.247 349.751 166.165C349.589 166.083 349.448 165.964 349.341 165.817C349.234 165.67 349.163 165.501 349.134 165.322C349.105 165.143 349.118 164.959 349.174 164.787C349.645 163.334 350.099 161.861 350.533 160.409C350.576 160.264 350.648 160.129 350.744 160.012C350.839 159.894 350.957 159.797 351.091 159.725C351.225 159.653 351.371 159.608 351.522 159.592C351.673 159.577 351.826 159.591 351.971 159.634C352.117 159.677 352.252 159.749 352.37 159.844C352.488 159.939 352.586 160.057 352.658 160.19C352.73 160.323 352.775 160.469 352.791 160.62C352.807 160.77 352.792 160.922 352.749 161.067C352.311 162.535 351.849 164.024 351.375 165.494C351.299 165.724 351.152 165.925 350.954 166.068C350.756 166.21 350.518 166.286 350.274 166.286V166.291ZM352.91 157.455C352.807 157.455 352.705 157.441 352.606 157.413C352.311 157.333 352.06 157.139 351.908 156.875C351.756 156.611 351.715 156.298 351.794 156.003C352.2 154.527 352.591 153.035 352.957 151.571C353.031 151.275 353.22 151.02 353.483 150.862C353.745 150.705 354.06 150.658 354.358 150.732C354.655 150.806 354.911 150.994 355.069 151.256C355.227 151.518 355.274 151.831 355.2 152.128C354.83 153.608 354.435 155.117 354.025 156.611C353.957 156.852 353.811 157.065 353.609 157.217C353.408 157.368 353.163 157.45 352.91 157.45V157.455ZM355.143 148.513C355.058 148.512 354.973 148.503 354.89 148.484C354.59 148.417 354.33 148.235 354.166 147.977C354.002 147.719 353.947 147.406 354.014 147.108C354.35 145.614 354.67 144.106 354.964 142.628C354.987 142.474 355.041 142.326 355.123 142.193C355.205 142.06 355.313 141.945 355.441 141.855C355.569 141.765 355.714 141.702 355.868 141.669C356.021 141.637 356.179 141.636 356.333 141.666C356.486 141.697 356.632 141.758 356.761 141.846C356.89 141.935 357 142.048 357.084 142.18C357.168 142.312 357.224 142.459 357.248 142.614C357.273 142.768 357.266 142.925 357.228 143.076C356.93 144.573 356.607 146.099 356.267 147.612C356.209 147.866 356.067 148.094 355.863 148.257C355.659 148.42 355.405 148.509 355.143 148.511V148.513ZM356.943 139.473C356.877 139.474 356.811 139.468 356.745 139.457C356.443 139.405 356.174 139.235 355.997 138.986C355.82 138.736 355.75 138.427 355.802 138.126C356.063 136.622 356.306 135.098 356.524 133.606C356.568 133.304 356.73 133.031 356.976 132.849C357.222 132.666 357.53 132.588 357.833 132.632C358.137 132.676 358.41 132.838 358.594 133.082C358.777 133.327 358.855 133.635 358.811 133.937C358.591 135.449 358.345 136.99 358.08 138.517C358.034 138.784 357.894 139.026 357.686 139.201C357.478 139.375 357.215 139.471 356.943 139.472V139.473ZM358.273 130.355C358.227 130.355 358.182 130.353 358.137 130.347C357.832 130.311 357.555 130.156 357.365 129.917C357.175 129.677 357.088 129.372 357.124 129.069C357.303 127.548 357.46 126.017 357.595 124.518C357.609 124.367 357.652 124.221 357.722 124.087C357.792 123.953 357.888 123.834 358.005 123.737C358.121 123.639 358.255 123.566 358.4 123.521C358.545 123.475 358.697 123.459 358.849 123.472C359 123.486 359.147 123.529 359.281 123.598C359.416 123.668 359.535 123.764 359.633 123.88C359.73 123.996 359.804 124.13 359.849 124.274C359.895 124.419 359.911 124.57 359.898 124.721C359.763 126.242 359.604 127.795 359.426 129.337C359.393 129.618 359.257 129.877 359.044 130.065C358.831 130.252 358.557 130.355 358.273 130.354V130.355ZM359.083 121.176H359.016C358.71 121.159 358.423 121.021 358.219 120.793C358.015 120.565 357.91 120.265 357.927 119.96C358.016 118.428 358.08 116.891 358.116 115.393C358.12 115.242 358.154 115.093 358.215 114.955C358.277 114.817 358.365 114.692 358.475 114.588C358.585 114.484 358.715 114.402 358.856 114.348C358.998 114.293 359.149 114.267 359.301 114.271C359.453 114.275 359.602 114.309 359.741 114.37C359.88 114.431 360.005 114.519 360.11 114.629C360.214 114.739 360.296 114.868 360.351 115.009C360.405 115.15 360.431 115.301 360.427 115.452C360.389 116.974 360.324 118.535 360.234 120.093C360.216 120.385 360.087 120.66 359.873 120.861C359.66 121.062 359.377 121.174 359.083 121.174V121.176ZM359.311 111.964C359.007 111.964 358.714 111.845 358.497 111.631C358.281 111.417 358.158 111.127 358.155 110.823C358.141 109.292 358.099 107.757 358.029 106.26C358.021 105.958 358.131 105.664 358.338 105.443C358.544 105.222 358.829 105.09 359.132 105.076C359.435 105.062 359.731 105.167 359.957 105.369C360.183 105.57 360.32 105.852 360.34 106.153C360.41 107.679 360.453 109.242 360.467 110.803C360.468 110.954 360.44 111.104 360.383 111.244C360.326 111.384 360.242 111.512 360.136 111.62C360.029 111.728 359.903 111.814 359.763 111.873C359.623 111.932 359.473 111.963 359.322 111.964H359.311ZM358.879 102.761C358.59 102.76 358.312 102.652 358.099 102.457C357.886 102.262 357.754 101.995 357.729 101.708C357.597 100.18 357.432 98.6549 357.24 97.1763C357.208 96.877 357.295 96.5772 357.482 96.341C357.669 96.1048 357.942 95.9509 358.241 95.9122C358.541 95.8735 358.844 95.9531 359.085 96.134C359.326 96.3149 359.487 96.5827 359.533 96.8802C359.729 98.3908 359.897 99.9493 360.032 101.511C360.045 101.661 360.029 101.813 359.983 101.957C359.937 102.102 359.863 102.235 359.765 102.351C359.668 102.467 359.548 102.562 359.413 102.632C359.279 102.702 359.131 102.744 358.98 102.757C358.946 102.759 358.912 102.76 358.879 102.76V102.761ZM357.685 93.624C357.414 93.6236 357.151 93.5282 356.943 93.3545C356.735 93.1808 356.595 92.9399 356.547 92.6737C356.277 91.1612 355.97 89.6657 355.635 88.2181C355.597 88.0693 355.589 87.9145 355.612 87.7627C355.635 87.6109 355.688 87.4652 355.768 87.3342C355.848 87.2031 355.954 87.0893 356.079 86.9996C356.204 86.9098 356.346 86.8458 356.496 86.8114C356.646 86.777 356.801 86.7729 356.953 86.7992C357.105 86.8256 357.25 86.8819 357.379 86.9649C357.509 87.0478 357.621 87.1558 357.708 87.2824C357.795 87.409 357.856 87.5517 357.887 87.702C358.232 89.1844 358.547 90.7232 358.824 92.2742C358.853 92.44 358.846 92.6102 358.802 92.773C358.759 92.9357 358.68 93.0869 358.572 93.216C358.463 93.3451 358.327 93.4488 358.174 93.52C358.021 93.5911 357.854 93.6279 357.685 93.6278V93.624ZM355.591 84.6536C355.341 84.6536 355.098 84.5728 354.898 84.4233C354.698 84.2738 354.552 84.0637 354.482 83.8245C354.051 82.3544 353.575 80.9049 353.067 79.5156C352.979 79.233 353.003 78.9274 353.135 78.6624C353.267 78.3973 353.497 78.193 353.776 78.0919C354.055 77.9909 354.362 78.0007 354.634 78.1195C354.906 78.2382 355.122 78.4568 355.237 78.7297C355.758 80.1651 356.249 81.6616 356.694 83.1778C356.744 83.3495 356.754 83.5304 356.721 83.7063C356.689 83.8822 356.616 84.0482 356.509 84.1913C356.401 84.3344 356.262 84.4506 356.102 84.5309C355.941 84.6111 355.764 84.6531 355.585 84.6536H355.591ZM352.431 76.0056C352.207 76.0057 351.988 75.941 351.801 75.8196C351.613 75.6981 351.465 75.525 351.374 75.3213C350.751 73.9254 350.078 72.5624 349.375 71.2708C349.237 71.0031 349.21 70.6925 349.299 70.4052C349.389 70.118 349.587 69.8768 349.852 69.7333C350.117 69.5898 350.428 69.5552 350.719 69.637C351.009 69.7188 351.256 69.9104 351.407 70.171C352.139 71.5162 352.839 72.9337 353.487 74.385C353.565 74.5604 353.598 74.7525 353.583 74.9438C353.568 75.1351 353.505 75.3196 353.4 75.4806C353.295 75.6416 353.152 75.7739 352.982 75.8656C352.813 75.9573 352.624 76.0054 352.431 76.0056ZM348.012 67.9216C347.821 67.9219 347.633 67.8751 347.465 67.7852C347.297 67.6952 347.153 67.5651 347.048 67.4065C346.207 66.1422 345.308 64.924 344.379 63.7856C344.202 63.5473 344.124 63.25 344.161 62.9557C344.198 62.6613 344.347 62.3926 344.578 62.2053C344.809 62.0181 345.104 61.9268 345.401 61.9505C345.697 61.9741 345.974 62.1109 346.172 62.3324C347.148 63.528 348.091 64.8064 348.973 66.1337C349.088 66.3071 349.153 66.5083 349.163 66.7159C349.172 66.9235 349.125 67.1298 349.026 67.3129C348.928 67.496 348.781 67.6491 348.602 67.7559C348.423 67.8627 348.219 67.9193 348.01 67.9197L348.012 67.9216ZM270.465 66.1271C270.221 66.1277 269.982 66.0509 269.784 65.9079C269.586 65.7649 269.439 65.5629 269.363 65.3312C269.288 65.0994 269.288 64.8498 269.364 64.6182C269.44 64.3866 269.588 64.1849 269.786 64.0422C271.056 63.1267 272.345 62.2327 273.618 61.3858C273.744 61.2981 273.887 61.2364 274.037 61.2043C274.187 61.1722 274.343 61.1703 274.494 61.1988C274.645 61.2272 274.789 61.2854 274.918 61.37C275.046 61.4546 275.156 61.5639 275.241 61.6914C275.327 61.8189 275.386 61.9621 275.415 62.1126C275.444 62.2631 275.443 62.4179 275.411 62.568C275.38 62.718 275.318 62.8602 275.231 62.9864C275.143 63.1125 275.032 63.2199 274.902 63.3024C273.653 64.1325 272.388 65.0095 271.141 65.9081C270.944 66.0514 270.706 66.1284 270.462 66.1281L270.465 66.1271ZM278.158 61.0164C277.906 61.017 277.66 60.9352 277.459 60.7836C277.257 60.632 277.111 60.4188 277.043 60.1766C276.975 59.9345 276.988 59.6767 277.08 59.4427C277.173 59.2087 277.34 59.0113 277.556 58.8807C278.899 58.0648 280.26 57.2827 281.601 56.5448C281.87 56.3977 282.186 56.363 282.48 56.4483C282.775 56.5336 283.023 56.732 283.171 56.9998C283.318 57.2675 283.353 57.5827 283.268 57.8761C283.182 58.1694 282.983 58.4168 282.714 58.5639C281.404 59.2811 280.073 60.0501 278.758 60.8481C278.577 60.9593 278.368 61.0179 278.156 61.0173L278.158 61.0164ZM342.179 60.7974C341.874 60.7979 341.581 60.6779 341.365 60.4636C340.303 59.4129 339.181 58.4236 338.005 57.5008C337.779 57.3071 337.637 57.0341 337.608 56.7385C337.579 56.443 337.666 56.1477 337.85 55.9144C338.034 55.6811 338.302 55.5276 338.597 55.486C338.892 55.4445 339.192 55.518 339.434 55.6913C340.679 56.6688 341.867 57.7164 342.992 58.829C343.155 58.9897 343.266 59.1949 343.312 59.4186C343.357 59.6423 343.335 59.8744 343.247 60.0854C343.16 60.2964 343.012 60.4768 342.822 60.6038C342.631 60.7307 342.407 60.7984 342.178 60.7983L342.179 60.7974ZM286.26 56.588C285.999 56.588 285.745 56.4997 285.541 56.3377C285.336 56.1756 285.193 55.9493 285.134 55.6956C285.075 55.442 285.104 55.1759 285.216 54.9407C285.328 54.7056 285.517 54.5152 285.752 54.4006C287.173 53.7116 288.607 53.0602 290.017 52.4671C290.298 52.3569 290.611 52.3604 290.889 52.4769C291.167 52.5935 291.389 52.8138 291.506 53.0908C291.624 53.3679 291.628 53.6797 291.518 53.9597C291.408 54.2397 291.192 54.4658 290.917 54.5896C289.544 55.1667 288.148 55.8003 286.766 56.4696C286.609 56.5476 286.436 56.5881 286.26 56.588ZM334.924 55.1263C334.713 55.1263 334.505 55.068 334.325 54.9581C333.404 54.3997 332.448 53.8761 331.483 53.4005C331.114 53.2181 330.738 53.0405 330.363 52.8713C330.084 52.7448 329.866 52.5128 329.758 52.2264C329.65 51.94 329.661 51.6227 329.788 51.3442C329.915 51.0658 330.148 50.849 330.435 50.7415C330.723 50.6341 331.041 50.6448 331.321 50.7713C331.719 50.9509 332.119 51.1407 332.511 51.3353C333.536 51.841 334.552 52.3975 335.53 52.9906C335.746 53.1212 335.913 53.3185 336.005 53.5524C336.098 53.7864 336.111 54.044 336.043 54.2861C335.975 54.5282 335.829 54.7414 335.627 54.8931C335.426 55.0449 335.181 55.1268 334.928 55.1263H334.924ZM294.775 53.016C294.503 53.0156 294.239 52.9193 294.031 52.7441C293.823 52.569 293.684 52.3262 293.638 52.0587C293.591 51.7911 293.642 51.516 293.779 51.2816C293.917 51.0473 294.133 50.8689 294.39 50.7779C295.887 50.2506 297.393 49.774 298.868 49.3623C299.015 49.3166 299.171 49.301 299.325 49.3162C299.478 49.3313 299.628 49.3771 299.763 49.4507C299.899 49.5243 300.019 49.6242 300.115 49.7446C300.211 49.865 300.282 50.0035 300.324 50.1517C300.366 50.3 300.377 50.4551 300.358 50.6078C300.338 50.7606 300.289 50.9079 300.211 51.0411C300.133 51.1743 300.03 51.2907 299.907 51.3834C299.783 51.476 299.642 51.5431 299.492 51.5806C298.067 51.9783 296.609 52.4398 295.16 52.9502C295.037 52.994 294.907 53.0163 294.775 53.016ZM326.525 51.324C326.407 51.3241 326.29 51.306 326.177 51.2705C324.749 50.8237 323.297 50.4602 321.826 50.1819C321.532 50.1181 321.274 49.9422 321.107 49.6916C320.941 49.441 320.879 49.1356 320.936 48.8404C320.992 48.5453 321.162 48.2837 321.409 48.1115C321.656 47.9393 321.961 47.87 322.258 47.9184C323.818 48.2138 325.358 48.5996 326.873 49.0737C327.136 49.156 327.362 49.3297 327.508 49.5634C327.654 49.7971 327.711 50.0753 327.669 50.3475C327.627 50.6197 327.489 50.8678 327.279 51.047C327.069 51.2262 326.802 51.3244 326.525 51.324ZM303.671 50.5344C303.385 50.5332 303.109 50.4264 302.897 50.2346C302.686 50.0427 302.553 49.7796 302.525 49.4959C302.496 49.2122 302.575 48.9281 302.744 48.6986C302.914 48.4691 303.163 48.3103 303.443 48.2531C305.006 47.9382 306.572 47.6891 308.099 47.5105C308.25 47.4929 308.403 47.505 308.549 47.5463C308.695 47.5875 308.831 47.657 308.95 47.7508C309.069 47.8446 309.169 47.9608 309.243 48.0929C309.317 48.225 309.364 48.3702 309.382 48.5205C309.399 48.6707 309.387 48.8229 309.346 48.9685C309.304 49.114 309.234 49.25 309.14 49.3686C309.046 49.4873 308.93 49.5863 308.797 49.6601C308.664 49.7338 308.519 49.7808 308.368 49.7984C306.904 49.9695 305.401 50.2092 303.901 50.5109C303.825 50.5275 303.748 50.5363 303.671 50.5373V50.5344ZM317.462 49.5944C317.432 49.5944 317.402 49.5944 317.368 49.5944C315.87 49.4809 314.367 49.4427 312.865 49.4798C312.713 49.4835 312.562 49.4573 312.421 49.4029C312.279 49.3484 312.15 49.2667 312.04 49.1624C311.93 49.0581 311.841 48.9333 311.78 48.795C311.718 48.6567 311.685 48.5077 311.681 48.3564C311.677 48.2052 311.704 48.0548 311.758 47.9136C311.813 47.7725 311.895 47.6435 312 47.534C312.104 47.4244 312.23 47.3365 312.368 47.2752C312.507 47.2139 312.657 47.1805 312.808 47.1768C314.389 47.1376 315.97 47.178 317.546 47.298C317.846 47.3188 318.125 47.4549 318.326 47.6775C318.526 47.9 318.632 48.1916 318.62 48.4904C318.609 48.7893 318.481 49.072 318.265 49.2788C318.048 49.4855 317.759 49.6001 317.458 49.5982L317.462 49.5944Z" fill="#F4B545"/>
<path d="M300.333 321.229L283.126 294.271C283.126 294.271 308.868 316.942 308.868 316.517C308.868 316.092 328.459 272.875 328.459 272.875C328.459 272.875 318.538 313.397 318.823 319.349C318.823 319.349 328.756 310.341 333.458 309.603C338.161 308.865 326.998 318.063 327.008 323.46H301.36L300.333 321.229Z" fill="#4CD8BD"/>
<path d="M290.44 202.131H119.728C114.341 202.131 109.974 206.482 109.974 211.85V311.477C109.974 316.845 114.341 321.196 119.728 321.196H290.44C295.826 321.196 300.193 316.845 300.193 311.477V211.85C300.193 206.482 295.826 202.131 290.44 202.131Z" fill="#105D5E"/>
<path d="M284.375 272.809V257.151C284.375 255.402 282.952 253.984 281.196 253.984H265.482C263.727 253.984 262.304 255.402 262.304 257.151V272.809C262.304 274.558 263.727 275.976 265.482 275.976H281.196C282.952 275.976 284.375 274.558 284.375 272.809Z" fill="white"/>
<path d="M300.193 221.045H109.974V243.312H300.193V221.045Z" fill="white"/>
<path d="M134.99 301.01V289.253H128.563V301.01H134.99Z" fill="white"/>
<path d="M145.736 301.01V289.253H139.309V301.01H145.736Z" fill="white"/>
<path d="M156.481 301.011V289.254H150.055V301.011H156.481Z" fill="white"/>
<path d="M167.226 301.01V289.253H160.8V301.01H167.226Z" fill="white"/>
<path d="M184.144 301.01V289.253H177.718V301.01H184.144Z" fill="white"/>
<path d="M194.89 301.011V289.254H188.463V301.011H194.89Z" fill="white"/>
<path d="M205.635 301.01V289.253H199.209V301.01H205.635Z" fill="white"/>
<path d="M216.38 301.01V289.253H209.954V301.01H216.38Z" fill="white"/>
<g style="mix-blend-mode:multiply" opacity="0.2">
<path d="M299.825 295.278L296.438 297.266L295.907 294.939H289.931C292.08 291.001 292.233 287.433 290.467 285.653C288.346 283.515 284.186 284.682 283.967 284.747C279.97 285.922 275.896 289.85 273.525 294.939H270.076L273.885 282.221L269.363 284.875L268.653 281.768H260.767C263.238 276.613 263.248 272.286 260.938 270.371C258.783 268.585 255.183 269.369 254.283 269.594C249.324 270.827 244.131 275.466 240.456 281.768H231.871L214.007 324.715H250.59L256.296 323.936L254.975 327.106H282.375L290.629 325.978L299.825 295.278Z" fill="#105D5E"/>
</g>
<path d="M216.535 281.768H253.319L250.589 324.715H214.006L216.535 281.768Z" fill="white"/>
<path d="M253.319 281.768L255.138 284.875L258.712 282.221L261.071 323.211L250.589 324.715L253.319 281.768Z" fill="#B7CAE5"/>
<path d="M257.725 294.939H285.275L283.23 327.106H255.83L257.725 294.939Z" fill="white"/>
<path d="M285.275 294.939L286.638 297.267L289.315 295.278L291.081 325.979L283.23 327.106L285.275 294.939Z" fill="#B7CAE5"/>
<path d="M243.962 288.027C243.856 288.027 243.751 288.001 243.657 287.952C243.564 287.902 243.483 287.83 243.424 287.743C243.364 287.655 243.327 287.554 243.316 287.449C243.304 287.344 243.319 287.237 243.358 287.139C244.733 283.715 245.225 280.166 244.744 277.145C244.292 274.307 243.028 272.095 241.185 270.916C238.697 269.325 235.65 269.98 234.775 270.218C229.356 271.698 225.474 278.362 225.115 286.802C225.111 286.887 225.091 286.971 225.055 287.048C225.019 287.125 224.968 287.195 224.905 287.252C224.843 287.31 224.769 287.354 224.689 287.384C224.609 287.413 224.523 287.426 224.438 287.422C224.353 287.419 224.269 287.399 224.192 287.363C224.114 287.327 224.045 287.276 223.987 287.214C223.929 287.151 223.884 287.078 223.855 286.998C223.826 286.918 223.812 286.833 223.816 286.748C224.199 277.743 228.465 270.598 234.432 268.97C235.721 268.617 239.027 267.997 241.885 269.826C246.413 272.722 247.54 280.206 244.563 287.62C244.515 287.74 244.432 287.843 244.325 287.915C244.218 287.988 244.092 288.027 243.962 288.027Z" fill="#B7CAE5"/>
<path d="M277.754 299.899C277.642 299.899 277.531 299.87 277.434 299.815C277.336 299.759 277.255 299.68 277.197 299.584C277.14 299.488 277.108 299.379 277.105 299.267C277.102 299.156 277.128 299.045 277.181 298.946C278.502 296.486 279.082 293.8 278.814 291.382C278.563 289.12 277.61 287.27 276.131 286.173C273.49 284.215 269.935 285.349 269.899 285.361C265.613 286.771 262.929 292.368 263.519 298.674C263.532 298.843 263.478 299.011 263.368 299.142C263.258 299.272 263.101 299.354 262.931 299.369C262.761 299.385 262.591 299.333 262.459 299.225C262.327 299.118 262.243 298.962 262.225 298.793C261.904 295.357 262.449 292.119 263.802 289.42C265.123 286.78 267.148 284.902 269.492 284.131C269.664 284.075 273.73 282.778 276.908 285.133C280.644 287.903 281.255 294.104 278.327 299.557C278.272 299.661 278.189 299.747 278.088 299.807C277.987 299.868 277.872 299.9 277.754 299.899Z" fill="#B7CAE5"/>
<path d="M213.184 159.013C213.184 159.013 210.819 160.947 208.419 162.625C207.541 163.239 206.658 163.818 205.886 164.256C202.999 165.889 198.983 163.61 198.983 163.61C198.983 163.61 186.272 145.645 184.46 144.518C182.649 143.391 178.841 140.578 179.294 138.267C179.748 135.957 185.177 136.913 186.648 137.908C188.119 138.904 188.402 141.82 188.797 142.947C189.192 144.074 202.472 157.809 202.472 157.809L206.469 153.977L207.978 152.53L213.184 159.013Z" fill="#FDC8AA"/>
<path d="M188.099 132.641L174.328 126.876L170.458 136.055L184.228 141.82L188.099 132.641Z" fill="#3B82F4"/>
<path d="M186.853 141.041C186.853 141.041 185.23 135.799 183.202 136.088C181.174 136.378 182.268 137.905 183.405 138.771C184.542 139.638 185.721 142.249 185.721 142.249L186.853 141.041Z" fill="#FDC8AA"/>
<path d="M213.184 159.013C213.184 159.013 210.819 160.947 208.419 162.625C207.923 160.544 206.788 155.75 206.469 153.977L207.978 152.53L213.184 159.013Z" fill="#FBB188"/>
<path d="M183.254 190.356L181.053 192.222L179.859 193.232C179.859 193.232 177.767 195.77 177.539 196.107C177.31 196.443 169.732 194.528 169.732 194.528L175.33 189.598L179.009 186.354L183.254 190.356Z" fill="#FDC8AA"/>
<path d="M181.728 202.617C179.664 204.847 159.403 202.373 158.177 200.737C158.034 200.551 157.921 200.343 157.845 200.121C157.419 198.805 158.998 197.875 160.839 197.611C162.955 197.308 170.164 193.315 170.305 193.307C170.445 193.3 174.156 194.793 175.776 194.982C177.397 195.171 177.975 192.761 179.424 192.472C180.872 192.182 181.823 193.907 181.876 193.967C181.876 193.967 182.875 197.31 182.654 200.012C182.569 201.049 182.303 201.996 181.728 202.617Z" fill="#F4B545"/>
<path d="M181.728 202.617C179.664 204.847 159.403 202.373 158.177 200.737C158.034 200.551 157.921 200.343 157.845 200.121C168.883 203.208 179.507 200.855 182.657 200.012C182.569 201.049 182.303 201.996 181.728 202.617Z" fill="#105D5E"/>
<path d="M183.254 190.356L181.053 192.222C179.944 191.729 177.266 190.494 175.33 189.598L179.009 186.354L183.254 190.356Z" fill="#F4A882"/>
<path d="M213.001 243.311L212.925 246.067L212.742 252.899L205.707 253.198L205.084 243.471L213.001 243.311Z" fill="#FDC8AA"/>
<path d="M219.706 258.509C217.996 261.676 194.001 264.794 192.109 263.273C191.887 263.102 191.696 262.896 191.542 262.663C190.663 261.281 192.203 259.749 194.236 258.903C196.575 257.934 203.67 251.23 203.829 251.179C203.989 251.129 208.69 251.754 210.608 251.494C212.525 251.235 212.475 248.298 214.051 247.539C215.627 246.779 217.23 248.479 217.31 248.534C217.31 248.534 219.446 252.079 219.992 255.246C220.206 256.462 220.181 257.627 219.706 258.509Z" fill="#F4B545"/>
<path d="M219.706 258.509C217.996 261.676 194.001 264.794 192.108 263.273C191.887 263.102 191.696 262.896 191.542 262.663C205.135 262.96 216.629 257.137 219.992 255.243C220.206 256.462 220.181 257.627 219.706 258.509Z" fill="#105D5E"/>
<path d="M213.001 243.311L212.925 246.067L205.427 248.834L205.084 243.471L213.001 243.311Z" fill="#F4A882"/>
<path d="M226.837 183.071C226.837 183.071 215.747 199.302 211.9 200.804C210.891 201.199 209.811 200.317 208.732 198.754C205.702 194.354 202.694 184.555 201.415 182.616C199.679 179.984 181.801 192.16 181.801 192.16L178.106 185.846C178.106 185.846 197.493 167.881 204.735 166.98C211.034 166.195 215.961 179.17 217.737 182.859C218.002 183.414 218.196 183.759 218.314 183.817C219.219 184.268 220.652 183.817 220.956 183.817L226.837 183.071Z" fill="#105D5E"/>
<path d="M226.837 183.071C226.837 183.071 215.747 199.302 211.9 200.804C210.891 201.199 209.811 200.317 208.732 198.754L217.736 182.859C218.001 183.414 218.195 183.759 218.313 183.817C219.218 184.268 220.651 183.817 220.955 183.817L226.837 183.071Z" fill="#105D5E"/>
<path d="M244.025 192.575C243.226 197.861 241.124 203.902 235.818 205.803C225.747 209.411 215.013 216.288 215.013 216.288L213.3 245.265H204.662C204.662 245.265 202.551 213.023 203.229 210.99C203.825 209.21 217.546 191.581 221.154 185.811C221.663 184.997 221.969 184.42 222.011 184.155C222.351 182.013 244.416 183.704 244.416 183.704C244.589 186.667 244.459 189.639 244.025 192.575Z" fill="#105D5E"/>
<path d="M244.025 192.575C238.718 187.083 224.787 185.995 221.152 185.807C221.661 184.993 221.967 184.416 222.009 184.152C222.349 182.009 244.414 183.7 244.414 183.7C244.588 186.664 244.458 189.638 244.025 192.575Z" fill="#105D5E"/>
<path d="M237.625 116.958C237.625 116.958 248.488 105.683 252.278 115.21C256.069 124.737 246.734 122.426 246.734 122.426L237.625 116.958Z" fill="#105D5E"/>
<path d="M239.738 117.076C238.184 116.562 236.532 116.409 234.91 116.629C233.287 116.849 231.737 117.437 230.377 118.346C227.659 120.155 223.973 122.909 224.044 124.513C224.158 127.051 224.95 126.712 228.007 126.205C231.063 125.699 238.195 134.665 237.964 137.875C237.733 141.086 236.038 155.288 239.775 160.591C243.511 165.895 260.142 169.949 258.219 157.547C256.295 145.144 250.751 145.37 252.222 134.208C253.307 125.979 246.333 119.286 239.738 117.076Z" fill="#105D5E"/>
<path d="M238.015 113.68L237.335 114.584C237.123 114.866 237.18 115.266 237.463 115.477L247.71 123.135C247.993 123.346 248.395 123.289 248.607 123.007L249.287 122.103C249.499 121.821 249.442 121.421 249.159 121.209L238.912 113.552C238.629 113.341 238.228 113.398 238.015 113.68Z" fill="white"/>
<path d="M272.476 206.028C271.459 204.816 270.3 203.183 269.902 203.408C269.504 203.634 274.147 208.171 273.07 209.271C271.992 210.372 269.025 205.409 268.346 205.522C267.667 205.634 271.062 209.55 269.562 209.55C268.062 209.55 266.566 205.32 264.243 204.026C261.921 202.732 261.275 202.673 261.021 203.436C260.767 204.198 263.368 206.931 262.519 207.719C261.67 208.508 258.106 206.001 257.142 203.041C256.404 200.77 249.347 177.69 246.104 167.072L244.489 161.774L251.958 159.011L252.543 161.355L261.236 196.146C261.236 196.146 271.519 200.052 272.986 203.266C274.453 206.479 273.495 207.242 272.476 206.028Z" fill="#FDC8AA"/>
<path d="M252.547 161.356L246.111 167.072L244.489 161.774L251.958 159.011L252.547 161.356Z" fill="#F4A882"/>
<path d="M236.267 142.72L237.173 142.889C235.758 147.456 227.833 147.569 224.669 146.555C221.505 145.542 229.48 142.159 229.48 142.159C229.48 142.159 229.533 141.667 229.605 140.975C229.773 139.394 230.046 136.774 230.046 136.577L237.643 134.846L237.04 138.305L236.267 142.72Z" fill="#FDC8AA"/>
<path d="M242.892 162.58C243.008 163.238 247.017 185.316 244.489 184.945C243.102 184.739 239.942 184.36 236.676 184.173C233.916 184.018 231.078 183.998 229.176 184.342C225.025 185.094 219.142 186.298 219.672 181.939C220.201 177.58 220.199 155.782 218.992 155.479L213.032 160.14L211.026 157.689L206.394 152.022C206.394 152.022 218.839 141.598 229.477 142.152L237.173 142.885C237.173 142.885 247.3 140.911 250.242 149.876C253.183 158.84 253.184 160.418 253.184 160.418C253.184 160.418 247.225 162.139 243.633 162.674L242.887 162.556C242.889 162.564 242.891 162.572 242.892 162.58Z" fill="#F4B545"/>
<path d="M244.489 184.945C243.102 184.739 239.942 184.36 236.676 184.173C245.854 176.392 239.507 154.657 239.507 154.657L242.073 155.785H242.713L242.883 162.568C242.885 162.573 242.887 162.578 242.888 162.583C243.008 163.238 247.017 185.316 244.489 184.945Z" fill="#E59D29"/>
<path d="M218.992 155.476L213.032 160.137L211.026 157.686C213.613 156.965 218.992 155.476 218.992 155.476Z" fill="#E59D29"/>
<path d="M236.267 142.72L237.173 142.889C235.758 147.456 227.833 147.569 224.669 146.555C221.505 145.542 229.48 142.159 229.48 142.159C229.48 142.159 229.533 141.667 229.605 140.975C229.773 139.394 230.046 136.774 230.046 136.577L237.643 134.846L237.04 138.305L236.267 142.72Z" fill="#FDC8AA"/>
<path d="M237.642 134.844L237.038 138.303C235.682 139.505 233.294 140.935 229.603 140.973C229.771 139.393 230.044 136.772 230.044 136.575L237.642 134.844Z" fill="#F4A882"/>
<path d="M240.686 129.836C241.332 124.585 238.373 119.902 234.076 119.378C229.78 118.853 225.773 122.684 225.127 127.935C224.481 133.187 227.44 137.869 231.736 138.394C236.033 138.919 240.04 135.088 240.686 129.836Z" fill="#FDC8AA"/>
<path d="M225.97 123.723C225.97 123.723 230.647 125.263 233.476 125.039C236.306 124.814 237.474 126.092 236.908 128.611C236.342 131.13 238.002 127.859 238.87 129.927C239.738 131.995 237.059 133.61 237.399 134.287C237.739 134.963 238.463 137.295 239.043 137.217C239.624 137.14 243.208 133.159 242.34 128.46C241.472 123.762 240.68 119.103 236.833 118.952C232.986 118.802 230.76 118.839 229.365 119.779C227.97 120.719 225.97 123.723 225.97 123.723Z" fill="#105D5E"/>
<g style="mix-blend-mode:multiply" opacity="0.2">
<path d="M379.854 170.512C394.798 155.623 394.798 131.482 379.854 116.592C364.911 101.702 340.683 101.702 325.739 116.592C310.796 131.482 310.796 155.623 325.739 170.512C340.683 185.402 364.911 185.402 379.854 170.512Z" fill="#105D5E"/>
</g>
<path d="M380.562 163.797C395.505 148.908 395.505 124.767 380.562 109.878C365.619 94.9887 341.391 94.9888 326.448 109.878C311.505 124.767 311.505 148.908 326.448 163.797C341.391 178.686 365.619 178.686 380.562 163.797Z" fill="white"/>
<path d="M373.241 148.026L344.705 157.695C344.407 157.796 344.091 157.833 343.779 157.803C343.466 157.774 343.163 157.678 342.889 157.523C342.616 157.368 342.379 157.158 342.194 156.905C342.008 156.652 341.879 156.362 341.814 156.056L335.675 127.063C335.563 126.533 335.65 125.98 335.919 125.51C336.188 125.039 336.62 124.683 337.135 124.509L358.938 117.124C359.452 116.95 360.013 116.969 360.514 117.179C361.015 117.388 361.421 117.773 361.657 118.261L374.528 144.971C374.664 145.253 374.739 145.561 374.747 145.874C374.754 146.187 374.696 146.498 374.574 146.786C374.453 147.075 374.271 147.335 374.041 147.548C373.811 147.762 373.539 147.925 373.241 148.026Z" fill="#105D5E"/>
<path d="M356.086 123.595C356.151 125.103 355.724 126.591 354.869 127.836C354.014 129.082 352.776 130.017 351.343 130.503C349.909 130.989 348.356 130.999 346.916 130.532C345.476 130.064 344.227 129.144 343.356 127.91L340.276 128.952C341.453 130.984 343.3 132.547 345.504 133.373C347.707 134.199 350.13 134.238 352.359 133.483C354.588 132.728 356.485 131.225 357.727 129.231C358.968 127.238 359.476 124.877 359.165 122.552L356.086 123.595Z" fill="white"/>
<g style="mix-blend-mode:multiply" opacity="0.2">
<path d="M388.514 295.91C399.754 284.711 399.754 266.554 388.514 255.355C377.275 244.156 359.052 244.156 347.813 255.355C336.573 266.554 336.573 284.711 347.813 295.91C359.052 307.109 377.275 307.109 388.514 295.91Z" fill="#105D5E"/>
</g>
<path d="M388.513 290.396C399.753 279.197 399.753 261.04 388.513 249.841C377.274 238.642 359.051 238.642 347.812 249.841C336.573 261.04 336.573 279.197 347.812 290.396C359.051 301.595 377.274 301.595 388.513 290.396Z" fill="white"/>
<path d="M360.377 257.06C360.377 257.06 362.234 258.066 365.585 257.134C368.936 256.203 370 254.383 370 254.383C370 254.383 370.755 259.064 366.459 260.259C362.164 261.453 360.377 257.06 360.377 257.06Z" fill="white"/>
<path d="M384.325 261.567L375.48 254.423L370.971 254.387L370.002 254.379C370.002 254.379 370.089 258.327 366.222 259.4C362.355 260.472 360.378 257.056 360.378 257.056L355.716 259.921L351.49 271.619L358.494 274.47L358.91 273.447L360.908 268.537L365.617 285.501L365.9 286.513L373.247 284.469L380.594 282.426L375.519 264.472L379.779 267.641L380.667 268.299L385.177 262.245L384.325 261.567Z" fill="#105D5E"/>
<path d="M151.244 168.53C154.287 165.499 154.287 160.584 151.244 157.553C148.202 154.521 143.269 154.521 140.227 157.553C137.184 160.584 137.184 165.499 140.227 168.53C143.269 171.562 148.202 171.562 151.244 168.53Z" fill="#105D5E"/>
<path d="M126.125 192.307C128.61 192.307 130.625 190.3 130.625 187.823C130.625 185.347 128.61 183.339 126.125 183.339C123.639 183.339 121.625 185.347 121.625 187.823C121.625 190.3 123.639 192.307 126.125 192.307Z" fill="#105D5E"/>
<g style="mix-blend-mode:multiply" opacity="0.2">
<path d="M344.469 226.926C351.854 219.568 351.854 207.639 344.469 200.281C337.085 192.923 325.112 192.923 317.727 200.281C310.343 207.639 310.343 219.568 317.727 226.926C325.112 234.284 337.085 234.284 344.469 226.926Z" fill="#105D5E"/>
</g>
<path d="M344.469 223.239C351.854 215.881 351.854 203.952 344.469 196.594C337.084 189.236 325.112 189.236 317.727 196.594C310.342 203.952 310.342 215.881 317.727 223.239C325.112 230.597 337.084 230.597 344.469 223.239Z" fill="#F4B545"/>
<path d="M320.16 213.81C319.885 213.033 319.928 212.18 320.282 211.436C320.635 210.692 321.27 210.117 322.047 209.838L338.048 204.144C338.827 203.869 339.684 203.912 340.431 204.264C341.178 204.617 341.754 205.249 342.035 206.024C342.311 206.8 342.268 207.653 341.914 208.397C341.56 209.141 340.926 209.716 340.148 209.995L324.151 215.69C323.371 215.967 322.514 215.924 321.766 215.572C321.018 215.219 320.44 214.585 320.16 213.81Z" fill="white"/>
<path d="M332.894 214.42C331.989 214.742 331.008 214.789 330.076 214.556C329.143 214.323 328.301 213.819 327.656 213.109C327.011 212.399 326.592 211.514 326.451 210.567C326.311 209.619 326.455 208.651 326.867 207.786C327.278 206.92 327.938 206.195 328.763 205.704C329.588 205.212 330.541 204.974 331.501 205.022C332.461 205.07 333.386 205.4 334.157 205.971C334.929 206.542 335.514 207.329 335.837 208.231C336.052 208.83 336.146 209.465 336.114 210.1C336.083 210.735 335.926 211.358 335.652 211.933C335.379 212.507 334.995 213.023 334.522 213.45C334.048 213.876 333.495 214.206 332.894 214.42Z" fill="white"/>
<path d="M334.423 211.468C335.297 209.628 334.509 207.431 332.663 206.559C330.817 205.688 328.611 206.473 327.737 208.313C326.862 210.153 327.65 212.35 329.497 213.222C331.343 214.093 333.549 213.308 334.423 211.468Z" fill="#F4B545"/>
<path d="M306.562 56.9527C310.959 56.9527 314.523 53.4016 314.523 49.021C314.523 44.6404 310.959 41.0893 306.562 41.0893C302.166 41.0893 298.602 44.6404 298.602 49.021C298.602 53.4016 302.166 56.9527 306.562 56.9527Z" fill="#F4B545"/>
<path d="M147.745 76.0037C150.63 76.0037 152.968 73.6738 152.968 70.7998C152.968 67.9258 150.63 65.596 147.745 65.596C144.861 65.596 142.523 67.9258 142.523 70.7998C142.523 73.6738 144.861 76.0037 147.745 76.0037Z" fill="#105D5E"/>
<path d="M407.354 236.775C408.192 233.238 405.993 229.693 402.443 228.858C398.893 228.024 395.336 230.214 394.498 233.752C393.66 237.289 395.859 240.833 399.409 241.668C402.959 242.503 406.516 240.312 407.354 236.775Z" fill="#105D5E"/>
</svg>
