<svg width="400" height="244" viewBox="0 0 400 244" fill="none" xmlns="http://www.w3.org/2000/svg">
<g clip-path="url(#clip0_4_1906)">
<path d="M147.121 50.0808C200.804 23.6733 256.012 -10.8491 318.391 3.27896C337.726 7.68021 355.321 18.6118 367.216 34.5334C399.02 77.11 396.437 142.32 379.156 190.228C376.951 196.509 374.034 202.518 370.46 208.135C352.92 235.175 323.369 236.452 294.859 228.634C270.738 222.032 249.365 215.21 224.446 221.939C210.645 225.663 197.268 230.785 183.517 234.686C164.793 239.989 145.491 243.593 125.996 243.961C74.4114 244.924 15.4859 218.654 10.8985 161.091C10.6094 157.359 10.5487 153.613 10.7167 149.874C11.7521 126.899 19.3518 103.892 40.4163 91.9642C61.5965 79.9708 86.7252 75.2339 109.381 66.7285C122.24 61.9147 134.763 56.16 147.121 50.0808Z" fill="#105D5E"/>
<path opacity="0.7" d="M147.121 50.0808C200.804 23.6733 256.012 -10.8491 318.391 3.27896C337.726 7.68021 355.321 18.6118 367.216 34.5334C399.02 77.11 396.437 142.32 379.156 190.228C376.951 196.509 374.034 202.518 370.46 208.135C352.92 235.175 323.369 236.452 294.859 228.634C270.738 222.032 249.365 215.21 224.446 221.939C210.645 225.663 197.268 230.785 183.517 234.686C164.793 239.989 145.491 243.593 125.996 243.961C74.4114 244.924 15.4859 218.654 10.8985 161.091C10.6094 157.359 10.5487 153.613 10.7167 149.874C11.7521 126.899 19.3518 103.892 40.4163 91.9642C61.5965 79.9708 86.7252 75.2339 109.381 66.7285C122.24 61.9147 134.763 56.16 147.121 50.0808Z" fill="white"/>
<path d="M400 230.461H0" stroke="#293E33" stroke-miterlimit="10"/>
<path d="M8.98202 177.448C10.7663 178.229 15.1334 178.13 15.1334 178.13C15.1334 178.13 14.1972 175.274 14.1146 175.104C13.1564 173.101 10.1275 169.8 7.66583 170.153C7.25813 170.219 6.86908 170.371 6.52396 170.598C6.17883 170.825 5.88534 171.122 5.66254 171.47C5.43975 171.817 5.29263 172.208 5.23074 172.616C5.16885 173.024 5.19357 173.441 5.3033 173.839C5.71633 175.517 7.46207 176.782 8.98202 177.448Z" fill="#293E33"/>
<path d="M10.491 190.101C12.3413 190.371 16.2348 189.243 16.5487 189.149C17.1924 191.375 17.9816 193.557 18.9113 195.68C19.462 196.918 20.0127 198.15 20.6239 199.377C20.266 198.854 19.9466 198.392 19.8915 198.332C18.4376 196.681 14.6488 194.271 12.3578 195.24C11.9826 195.412 11.6478 195.661 11.3751 195.97C11.1024 196.28 10.8979 196.644 10.7748 197.037C10.6517 197.431 10.6129 197.846 10.6608 198.256C10.7086 198.665 10.8422 199.06 11.0527 199.415C11.9008 200.95 13.9219 201.715 15.563 201.952C17.2041 202.188 20.5689 201.297 21.45 201.049L22.1439 202.458C23.2728 204.697 24.4073 206.93 25.4481 209.159C25.8171 209.94 26.153 210.727 26.489 211.513C26.1751 211.051 25.9052 210.666 25.8557 210.611C24.4073 208.933 20.6129 206.545 18.322 207.514C17.9468 207.686 17.612 207.935 17.3392 208.244C17.0665 208.554 16.862 208.917 16.739 209.311C16.6159 209.705 16.577 210.12 16.6249 210.53C16.6728 210.939 16.8063 211.334 17.0168 211.689C17.8649 213.23 19.886 213.989 21.5271 214.226C23.1682 214.462 26.2081 213.675 27.2544 213.367C27.5794 214.182 27.8988 215.018 28.1741 215.799C28.3504 216.349 28.5596 216.872 28.7248 217.449L29.1874 219.1C29.4408 220.162 29.7381 221.257 29.9364 222.296C30.0961 223.023 30.2338 223.716 30.377 224.409C30.019 223.628 29.2755 222.104 29.2095 221.983C28.0254 220.107 24.6386 217.174 22.232 217.785C21.8344 217.897 21.4649 218.092 21.1478 218.356C20.8306 218.62 20.5729 218.949 20.3915 219.32C20.2101 219.69 20.1091 220.095 20.095 220.508C20.081 220.92 20.1543 221.331 20.31 221.713C20.9103 223.364 22.7937 224.42 24.3798 224.904C26.1255 225.454 29.9915 224.948 30.4761 224.904C30.7074 226.054 30.9222 227.182 31.1039 228.244C31.2471 229.03 31.3737 229.789 31.4894 230.516H33.0259C32.8772 229.707 32.7175 228.865 32.5412 227.974C32.3154 226.802 32.0456 225.553 31.7537 224.277C32.9163 223.809 34.0509 223.275 35.1516 222.676C36.4237 224.051 39.6894 225.663 40.1079 225.872C39.6674 226.973 39.2213 228.018 38.7917 229.008L38.1199 230.516H39.772C39.9042 230.208 40.0308 229.899 40.163 229.58C40.6201 228.48 41.0827 227.281 41.5508 226.059C42.0189 226.153 45.8408 226.929 47.6086 226.527C49.2276 226.164 51.1881 225.251 51.9096 223.65C52.0928 223.278 52.1952 222.872 52.2101 222.459C52.225 222.045 52.152 221.633 51.9959 221.249C51.8398 220.866 51.6042 220.519 51.3046 220.233C51.005 219.947 50.6481 219.728 50.2575 219.59C47.9004 218.797 44.3043 221.471 42.9881 223.259C42.911 223.364 42.1951 224.601 41.7545 225.388C41.9418 224.888 42.129 224.398 42.3053 223.881C42.6797 222.857 43.0267 221.823 43.4067 220.712C43.5719 220.162 43.7316 219.612 43.8968 219.061C44.062 218.511 44.1942 217.923 44.3429 217.345C44.6623 215.997 44.8936 214.622 45.1524 213.23C46.0501 213.554 49.2607 214.671 50.9183 214.55C52.5759 214.429 54.6466 213.829 55.6048 212.349C55.8427 212.012 56.0066 211.628 56.0859 211.223C56.1652 210.817 56.1581 210.4 56.0651 209.998C55.9721 209.595 55.7953 209.217 55.5461 208.888C55.2969 208.558 54.981 208.285 54.619 208.086C52.4162 206.947 48.4456 209.049 46.8761 210.611C46.777 210.71 45.7747 211.959 45.224 212.658C45.3562 211.816 45.4938 210.98 45.5985 210.127C45.9014 207.662 46.1492 205.175 46.3805 202.667C46.4521 201.902 46.5347 201.143 46.6173 200.378C46.9367 200.499 50.72 201.908 52.5814 201.775C54.2336 201.66 56.3097 201.055 57.2679 199.575C57.5047 199.237 57.6676 198.852 57.7461 198.447C57.8245 198.042 57.8167 197.624 57.7232 197.222C57.6298 196.82 57.4527 196.442 57.2034 196.113C56.9542 195.784 56.6385 195.511 56.2767 195.311C54.0738 194.172 50.1088 196.274 48.5337 197.836C48.4181 197.957 46.9752 199.756 46.6338 200.23C46.81 198.552 47.0028 196.885 47.2561 195.245C47.5919 193.028 48.072 190.836 48.6934 188.682C48.8421 188.742 52.7797 190.228 54.6906 190.096C56.3428 189.975 58.4189 189.369 59.3771 187.895C59.6138 187.557 59.7767 187.173 59.8551 186.768C59.9335 186.364 59.9256 185.947 59.8321 185.545C59.7386 185.143 59.5615 184.766 59.3124 184.437C59.0632 184.108 58.7475 183.836 58.3859 183.637C56.1831 182.498 52.218 184.594 50.6429 186.157C50.5163 186.283 48.9908 188.22 48.7155 188.588C48.7485 188.467 48.7761 188.33 48.8146 188.209C49.4952 186.067 50.3651 183.99 51.4139 182.003C51.9646 180.903 52.5814 179.874 53.1927 178.889C53.8976 179.241 57.1413 180.815 58.8705 180.881C60.5997 180.947 62.6539 180.572 63.7663 179.23C64.039 178.92 64.2434 178.556 64.3662 178.162C64.489 177.768 64.5275 177.353 64.4792 176.943C64.4309 176.533 64.2969 176.138 64.0858 175.783C63.8748 175.429 63.5914 175.122 63.2541 174.884C61.1835 173.508 57.0146 175.164 55.2799 176.534C55.1863 176.606 54.3106 177.481 53.6828 178.124C53.9637 177.684 54.2336 177.222 54.5254 176.809C55.5608 175.241 56.6126 173.872 57.5488 172.667C58.0995 171.99 58.5896 171.385 59.0687 170.824C59.9389 170.824 63.4744 170.697 64.9944 169.976C66.5143 169.256 68.2105 167.963 68.5739 166.246C68.6736 165.846 68.6878 165.429 68.6155 165.023C68.5432 164.617 68.3861 164.23 68.1544 163.889C67.9227 163.547 67.6216 163.258 67.2707 163.041C66.9198 162.823 66.527 162.682 66.1178 162.626C63.6451 162.362 60.7043 165.746 59.8012 167.77C59.7241 167.946 58.8209 170.824 58.865 170.824H58.9201C58.452 171.374 57.9563 171.924 57.4276 172.568C56.4584 173.756 55.379 175.104 54.2996 176.65C53.1208 178.307 52.0378 180.03 51.056 181.81C49.9561 183.801 49.0346 185.885 48.3024 188.038C48.3049 188.066 48.3049 188.093 48.3024 188.121C48.3024 187.389 48.3024 185.37 48.2639 185.199C47.9775 182.999 46.1327 178.916 43.6875 178.465C43.2806 178.402 42.8648 178.424 42.467 178.531C42.0693 178.638 41.6985 178.827 41.3787 179.087C41.0589 179.346 40.7972 179.67 40.6105 180.036C40.4239 180.403 40.3164 180.805 40.2952 181.216C40.152 182.96 41.3966 184.71 42.6577 185.815C44.051 187.059 47.9225 188.264 48.2309 188.357C47.5311 190.568 46.9792 192.823 46.5787 195.108C46.3419 196.433 46.1437 197.781 45.9619 199.129C45.9619 198.502 45.9619 197.941 45.9289 197.858C45.6425 195.658 43.7977 191.581 41.3525 191.13C40.9456 191.066 40.5298 191.089 40.1321 191.196C39.7343 191.303 39.3635 191.492 39.0437 191.751C38.7239 192.011 38.4622 192.334 38.2755 192.701C38.0889 193.068 37.9814 193.47 37.9602 193.881C37.817 195.63 39.0616 197.38 40.3227 198.48C41.5838 199.58 44.8605 200.681 45.7306 200.972L45.5324 202.529C45.235 205.021 44.9486 207.481 44.5907 209.945C44.4695 210.798 44.3153 211.64 44.1611 212.482C44.1611 211.931 44.1611 211.453 44.1611 211.381C43.8748 209.181 42.0299 205.098 39.5848 204.647C39.1778 204.584 38.762 204.606 38.3643 204.713C37.9666 204.82 37.5958 205.009 37.276 205.269C36.9561 205.528 36.6944 205.852 36.5078 206.218C36.3211 206.585 36.2137 206.987 36.1924 207.398C36.0492 209.148 37.2938 210.897 38.5549 211.997C39.8161 213.098 42.7678 214.104 43.8032 214.44C43.6214 215.298 43.4397 216.151 43.2249 216.976C43.0652 217.526 42.9551 218.077 42.7623 218.627L42.2116 220.277C41.8372 221.301 41.4572 222.362 41.0717 223.353C40.8073 224.046 40.521 224.701 40.2731 225.355C40.4053 224.508 40.6366 222.835 40.6366 222.692C40.6114 220.742 40.0842 218.83 39.1056 217.141C39.1162 216.93 39.1089 216.719 39.0836 216.509C39.0314 216.099 38.8936 215.705 38.6791 215.353C38.4646 215 38.1782 214.696 37.8386 214.461C37.4989 214.226 37.1136 214.065 36.7076 213.988C36.3016 213.912 35.884 213.921 35.482 214.016C33.0809 214.655 31.561 218.869 31.4453 221.086C31.4453 221.213 31.5224 222.643 31.594 223.54C31.4729 223.017 31.3627 222.511 31.2305 221.972C30.9772 220.91 30.6798 219.859 30.3935 218.726C30.2283 218.176 30.0631 217.625 29.8978 217.075C29.7326 216.525 29.5123 215.975 29.3141 215.425C28.8405 214.127 28.2953 212.834 27.717 211.541C28.6477 211.321 31.941 210.484 33.2627 209.467C34.5844 208.449 35.9721 206.809 35.9611 205.065C35.9734 204.653 35.8983 204.242 35.7407 203.86C35.5831 203.479 35.3465 203.134 35.0466 202.85C34.7466 202.566 34.3899 202.349 34 202.212C33.61 202.075 33.1955 202.022 32.7835 202.056C30.3109 202.32 28.1631 206.254 27.717 208.427C27.717 208.564 27.5408 210.16 27.4802 211.035C27.1278 210.264 26.7753 209.489 26.3788 208.718C25.2774 206.518 24.0879 204.284 22.9094 202.067C22.5514 201.39 22.199 200.708 21.8465 200.026C22.1769 199.954 26.109 199.041 27.5904 197.908C28.9066 196.901 30.2999 195.251 30.2888 193.507C30.3003 193.094 30.2245 192.684 30.0666 192.302C29.9087 191.921 29.6722 191.577 29.3724 191.293C29.0726 191.01 28.7163 190.792 28.3267 190.655C27.9371 190.518 27.523 190.464 27.1113 190.497C24.6386 190.767 22.4963 194.7 22.0448 196.868C22.0117 197.033 21.808 199.327 21.7804 199.916C21.0039 198.42 20.2385 196.918 19.5501 195.41C18.6055 193.378 17.7942 191.287 17.1215 189.149C17.2757 189.116 21.3894 188.181 22.9039 187.02C24.2201 186.013 25.6133 184.363 25.6023 182.619C25.6137 182.207 25.538 181.796 25.3801 181.415C25.2222 181.034 24.9857 180.69 24.6859 180.406C24.3861 180.122 24.0298 179.904 23.6402 179.767C23.2506 179.63 22.8365 179.576 22.4248 179.61C19.9521 179.879 17.8098 183.813 17.3583 185.986C17.3252 186.157 17.0994 188.627 17.0939 189.072C17.0554 188.951 17.0003 188.825 16.9673 188.704C16.3516 186.545 15.9296 184.336 15.7061 182.102C15.5685 180.87 15.5079 179.681 15.4693 178.526C16.2513 178.432 19.8254 177.976 21.3068 177.062C22.7882 176.149 24.2917 174.713 24.4734 172.975C24.53 172.566 24.4998 172.15 24.385 171.753C24.2701 171.357 24.0731 170.989 23.8067 170.674C23.5403 170.358 23.2104 170.102 22.8386 169.922C22.4667 169.743 22.0612 169.643 21.6483 169.63C19.1591 169.63 16.5983 173.299 15.9099 175.412C15.8714 175.528 15.6235 176.732 15.4583 177.613C15.4583 177.09 15.4583 176.551 15.4583 176.05C15.4583 174.174 15.5795 172.452 15.7006 170.928C15.7722 170.064 15.8548 169.278 15.9429 168.557C16.6644 168.062 19.5391 166.032 20.4202 164.585C21.3013 163.138 21.9897 161.13 21.3454 159.496C21.2059 159.108 20.9863 158.755 20.7011 158.457C20.4158 158.16 20.0711 157.926 19.6894 157.77C19.3078 157.615 18.8976 157.541 18.4856 157.554C18.0735 157.567 17.6688 157.666 17.2977 157.845C15.0949 158.984 14.5056 163.43 14.8746 165.614C14.8746 165.806 15.7392 168.706 15.7777 168.678L15.8218 168.651C15.7227 169.349 15.629 170.103 15.5409 170.928C15.3867 172.447 15.2325 174.169 15.1885 176.056C15.1181 178.087 15.1659 180.12 15.3317 182.146C15.509 184.416 15.8868 186.665 16.4606 188.869C16.4591 188.894 16.4591 188.92 16.4606 188.946C16.0696 188.33 14.9186 186.652 14.8085 186.531C13.3546 184.853 9.56026 182.465 7.27483 183.439C6.89902 183.61 6.56358 183.859 6.29037 184.168C6.01716 184.478 5.81232 184.842 5.68918 185.236C5.56604 185.63 5.52737 186.045 5.5757 186.455C5.62403 186.865 5.75826 187.26 5.96966 187.614C6.82876 189.072 8.84985 189.832 10.491 190.101Z" fill="#293E33"/>
<path d="M53.1211 178.405C53.1597 178.405 53.9197 175.505 53.9417 175.318C54.2501 173.118 53.5507 168.717 51.3093 167.616C50.9327 167.446 50.5243 167.357 50.111 167.355C49.6976 167.354 49.2885 167.439 48.9106 167.607C48.5326 167.774 48.1942 168.019 47.9177 168.326C47.6411 168.633 47.4326 168.995 47.3057 169.388C46.7054 171.038 47.4654 173.057 48.3685 174.444C49.4259 176.078 53.1211 178.399 53.1211 178.405Z" fill="#293E33"/>
<path d="M361.246 24.1648L355.439 29.9651L361.246 35.7654L367.052 29.9651L361.246 24.1648Z" stroke="#293E33" stroke-miterlimit="10"/>
<path d="M139.494 202.6L135.682 206.408L139.494 210.217L143.306 206.408L139.494 202.6Z" stroke="#293E33" stroke-miterlimit="10"/>
<path d="M344.793 68.8276L340.981 72.6361L344.793 76.4446L348.605 72.6361L344.793 68.8276Z" stroke="#293E33" stroke-miterlimit="10"/>
<path d="M137.01 7.53451L133.198 11.343L137.01 15.1515L140.822 11.343L137.01 7.53451Z" stroke="#293E33" stroke-miterlimit="10"/>
<path d="M32.0182 131.711L26.2122 137.511L32.0182 143.311L37.8243 137.511L32.0182 131.711Z" stroke="#293E33" stroke-miterlimit="10"/>
<path d="M302.288 33.4715V31.1058C300.559 31.0398 299.274 30.4897 298.433 29.4554C297.592 28.4211 297.13 26.8678 297.045 24.7955L300.598 24.1904C300.614 24.8999 300.702 25.6059 300.862 26.2975C300.958 26.7682 301.181 27.2037 301.506 27.5573C301.653 27.6953 301.827 27.8027 302.016 27.8735C302.205 27.9444 302.406 27.9771 302.608 27.97C302.82 28.003 303.038 27.9732 303.233 27.8843C303.429 27.7953 303.594 27.6511 303.709 27.4693C303.896 27.1155 303.987 26.7192 303.973 26.3195C304.001 25.5585 303.793 24.8075 303.379 24.1684C302.917 23.5143 302.371 22.9241 301.754 22.4134L299.612 20.5758C299.144 20.1461 298.706 19.6847 298.301 19.195C297.901 18.7136 297.585 18.1687 297.365 17.583C297.122 16.8962 297.006 16.171 297.023 15.4429C296.982 14.768 297.081 14.0918 297.313 13.4566C297.545 12.8215 297.906 12.241 298.373 11.7513C299.357 10.8334 300.64 10.3019 301.985 10.2549V7.99927H303.197V10.2549C303.971 10.2724 304.729 10.4843 305.4 10.8711C305.953 11.2005 306.411 11.669 306.727 12.23C307.033 12.7902 307.254 13.3928 307.382 14.018C307.511 14.6364 307.594 15.2634 307.63 15.894L304.028 16.4442C304.019 15.8909 303.968 15.3391 303.874 14.7937C303.821 14.3942 303.665 14.0153 303.423 13.6934C303.297 13.5539 303.141 13.4466 302.965 13.3806C302.79 13.3145 302.601 13.2916 302.415 13.3138C302.2 13.3064 301.986 13.3528 301.794 13.4489C301.602 13.545 301.436 13.6877 301.313 13.8639C301.072 14.2108 300.945 14.6243 300.95 15.0468C300.916 15.7112 301.111 16.3672 301.501 16.9063C301.884 17.394 302.306 17.8503 302.762 18.2707L304.849 20.0807C305.405 20.59 305.921 21.1418 306.391 21.7312C306.861 22.3222 307.243 22.9782 307.525 23.6787C307.822 24.4641 307.966 25.2987 307.949 26.1379C307.959 26.9804 307.77 27.8132 307.399 28.5696C307.045 29.2889 306.505 29.9005 305.835 30.3411C305.131 30.7828 304.329 31.0453 303.5 31.1058V33.4715H302.288Z" stroke="#293E33" stroke-miterlimit="10"/>
<path d="M305.551 39.6255C315.992 37.9136 323.068 28.0697 321.354 17.6385C319.64 7.20738 309.787 0.139034 299.345 1.85094C288.903 3.56285 281.828 13.4068 283.542 23.8379C285.255 34.2691 295.109 41.3374 305.551 39.6255Z" stroke="#293E33" stroke-miterlimit="10"/>
<path d="M317.358 26.7802C320.702 18.5446 316.73 9.16009 308.486 5.8193C300.242 2.47852 290.848 6.44656 287.504 14.6822C284.16 22.9178 288.132 32.3023 296.376 35.6431C304.62 38.9839 314.014 35.0158 317.358 26.7802Z" stroke="#293E33" stroke-miterlimit="10"/>
<path d="M27.6895 58.4376V56.094C25.9603 56.0279 24.6661 55.4778 23.807 54.4435C22.9479 53.4092 22.4853 51.8559 22.4193 49.7837L25.9768 49.1785C25.9931 49.888 26.0817 50.594 26.2412 51.2856C26.3342 51.7546 26.5553 52.1887 26.88 52.5399C27.0263 52.6796 27.1991 52.7886 27.3883 52.8604C27.5775 52.9322 27.7791 52.9654 27.9814 52.9581C28.1892 52.9839 28.4001 52.95 28.5893 52.8604C28.7786 52.7707 28.9383 52.629 29.0498 52.4519C29.2477 52.0994 29.3484 51.7007 29.3416 51.2966C29.3688 50.5356 29.1612 49.7846 28.7469 49.1455C28.2784 48.4883 27.7226 47.8979 27.0948 47.3905L24.9525 45.553C24.493 45.1176 24.0626 44.6526 23.6639 44.1611C23.2718 43.6771 22.9612 43.1327 22.7442 42.5491C22.5036 41.8599 22.388 41.1333 22.4027 40.4035C22.3643 39.7297 22.4641 39.0551 22.6962 38.4212C22.9282 37.7873 23.2875 37.2075 23.752 36.7174C24.7377 35.7987 26.0228 35.2672 27.3701 35.221V32.9764H28.6202V35.221C29.3944 35.2401 30.1515 35.4519 30.823 35.8372C31.3738 36.1684 31.8292 36.6366 32.1447 37.1961C32.454 37.7548 32.6751 38.3579 32.8001 38.9841C32.9305 39.6024 33.0152 40.2294 33.0534 40.8601L29.4463 41.4103C29.4361 40.8573 29.3864 40.3057 29.2976 39.7598C29.2405 39.3604 29.0833 38.9819 28.8405 38.6595C28.7181 38.5169 28.5631 38.4059 28.3886 38.336C28.2141 38.266 28.0253 38.2393 27.8382 38.2579C27.6284 38.2535 27.4208 38.3016 27.2342 38.3976C27.0476 38.4937 26.888 38.6348 26.7698 38.808C26.5348 39.1533 26.4118 39.5624 26.4174 39.9799C26.3837 40.6443 26.5779 41.3003 26.9681 41.8394C27.3491 42.3273 27.767 42.7853 28.2182 43.2093L30.3109 45.0193C30.8667 45.5272 31.3806 46.0791 31.8473 46.6698C32.3197 47.2594 32.702 47.9157 32.9818 48.6173C33.2802 49.4023 33.426 50.237 33.4114 51.0765C33.418 51.9169 33.2295 52.7474 32.8606 53.5027C32.5066 54.2234 31.9668 54.8368 31.2966 55.2797C30.575 55.7466 29.7474 56.0247 28.8901 56.0885V58.4541L27.6895 58.4376Z" stroke="#293E33" stroke-miterlimit="10"/>
<path d="M30.914 64.5993C41.3586 62.9056 48.4512 53.0741 46.7558 42.6399C45.0604 32.2058 35.219 25.1203 24.7744 26.814C14.3299 28.5077 7.23729 38.3392 8.93268 48.7733C10.6281 59.2075 20.4694 66.293 30.914 64.5993Z" stroke="#293E33" stroke-miterlimit="10"/>
<path d="M42.7275 51.8668C46.132 43.6559 42.229 34.2426 34.0099 30.8415C25.7908 27.4404 16.368 31.3396 12.9635 39.5505C9.55907 47.7614 13.4621 57.1747 21.6812 60.5758C29.9003 63.9768 39.3231 60.0777 42.7275 51.8668Z" stroke="#293E33" stroke-miterlimit="10"/>
<path d="M96.9794 222.412V220.068C95.2501 220.002 93.9652 219.452 93.1244 218.418C92.2837 217.383 91.8137 215.83 91.7146 213.758L95.2667 213.153C95.283 213.862 95.3715 214.568 95.531 215.26C95.6256 215.729 95.8486 216.164 96.1753 216.514C96.3216 216.654 96.4945 216.763 96.6837 216.835C96.8728 216.906 97.0745 216.94 97.2767 216.932C97.4854 216.959 97.6975 216.926 97.8878 216.836C98.0781 216.746 98.2387 216.604 98.3506 216.426C98.5469 216.073 98.6457 215.674 98.637 215.271C98.6634 214.511 98.4579 213.761 98.0477 213.12C97.5777 212.464 97.0221 211.874 96.3956 211.365L94.2479 209.527C93.7812 209.094 93.3434 208.631 92.9372 208.141C92.546 207.658 92.2355 207.116 92.0175 206.534C91.7789 205.845 91.6652 205.118 91.6816 204.389C91.6424 203.715 91.7414 203.041 91.9724 202.407C92.2035 201.773 92.5618 201.193 93.0253 200.703C94.0121 199.786 95.2965 199.254 96.6434 199.206V196.962H97.855V199.206C98.6388 199.219 99.4063 199.431 100.085 199.822C100.637 200.152 101.093 200.621 101.407 201.181C101.716 201.74 101.937 202.343 102.062 202.969C102.196 203.587 102.28 204.214 102.316 204.845L98.7141 205.396C98.7023 204.842 98.6508 204.291 98.5599 203.745C98.502 203.347 98.3469 202.969 98.1083 202.645C97.9821 202.507 97.8248 202.401 97.6496 202.336C97.4744 202.271 97.2862 202.249 97.1005 202.271C96.8898 202.266 96.6813 202.314 96.4938 202.41C96.3063 202.506 96.1457 202.647 96.0266 202.821C95.7852 203.168 95.6582 203.581 95.6632 204.004C95.6272 204.668 95.8217 205.325 96.2139 205.863C96.5967 206.349 97.0165 206.806 97.4695 207.228L99.5622 209.038C100.118 209.547 100.634 210.099 101.104 210.688C101.575 211.278 101.955 211.934 102.233 212.636C102.532 213.421 102.677 214.255 102.663 215.095C102.669 215.935 102.481 216.766 102.112 217.521C101.768 218.223 101.246 218.822 100.598 219.259C99.8762 219.727 99.0484 220.005 98.1909 220.068V222.434L96.9794 222.412Z" stroke="#293E33" stroke-miterlimit="10"/>
<path d="M100.215 228.567C110.659 226.873 117.752 217.042 116.056 206.608C114.361 196.173 104.52 189.088 94.0751 190.782C83.6306 192.475 76.538 202.307 78.2334 212.741C79.9287 223.175 89.7701 230.261 100.215 228.567Z" stroke="#293E33" stroke-miterlimit="10"/>
<path d="M112.02 215.839C115.425 207.628 111.522 198.215 103.303 194.814C95.0836 191.413 85.6608 195.312 82.2563 203.523C78.8519 211.734 82.7549 221.147 90.974 224.548C99.1931 227.949 108.616 224.05 112.02 215.839Z" stroke="#293E33" stroke-miterlimit="10"/>
<path d="M227.045 226.995H165.025L174.326 192.791H217.744L227.045 226.995Z" fill="white" stroke="#293E33" stroke-linecap="round" stroke-linejoin="round"/>
<path d="M222.832 211.497L217.744 192.791H174.326L169.238 211.497H222.832Z" fill="#293E33" stroke="#293E33" stroke-linecap="round" stroke-linejoin="round"/>
<path d="M243.175 226.989H148.9V230.461H243.175V226.989Z" fill="white" stroke="#293E33" stroke-linecap="round" stroke-linejoin="round"/>
<path d="M330.104 26.3305H61.96V196.378H330.104V26.3305Z" fill="white" stroke="#293E33" stroke-linecap="round" stroke-linejoin="round"/>
<path d="M143.503 189.898H70.5565V32.8168H321.513V189.898H149.803" fill="white"/>
<path d="M143.503 189.898H70.5565V32.8168H321.513V189.898H149.803" stroke="#293E33" stroke-linecap="round" stroke-linejoin="round"/>
<path d="M205.43 90.1871L203.629 109.344" stroke="#293E33" stroke-linecap="round" stroke-linejoin="round"/>
<path d="M201.068 90.1871L199.978 109.344" stroke="#293E33" stroke-linecap="round" stroke-linejoin="round"/>
<path d="M196.707 90.1871L196.332 109.344" stroke="#293E33" stroke-linecap="round" stroke-linejoin="round"/>
<path d="M192.345 90.1871L192.687 109.344" stroke="#293E33" stroke-linecap="round" stroke-linejoin="round"/>
<path d="M187.984 90.1871L189.035 109.344" stroke="#293E33" stroke-linecap="round" stroke-linejoin="round"/>
<path d="M183.622 90.1871L185.39 109.344" stroke="#293E33" stroke-linecap="round" stroke-linejoin="round"/>
<path d="M179.26 90.1871L181.744 109.344" stroke="#293E33" stroke-linecap="round" stroke-linejoin="round"/>
<path d="M209.114 94.2473H175.273" stroke="#293E33" stroke-linecap="round" stroke-linejoin="round"/>
<path d="M208.591 98.379H175.951" stroke="#293E33" stroke-linecap="round" stroke-linejoin="round"/>
<path d="M208.217 102.511H176.479" stroke="#293E33" stroke-linecap="round" stroke-linejoin="round"/>
<path d="M207.914 106.642H177.382" stroke="#293E33" stroke-linecap="round" stroke-linejoin="round"/>
<path d="M214.831 77.8636L210.998 80.5704L207.313 109.872H177.906L174.299 90.0386H209.191" stroke="#293E33" stroke-width="3" stroke-linecap="round" stroke-linejoin="round"/>
<path d="M206.019 121.596C206.019 121.12 206.16 120.655 206.425 120.26C206.689 119.865 207.065 119.556 207.505 119.374C207.945 119.192 208.428 119.145 208.895 119.238C209.362 119.33 209.791 119.559 210.128 119.896C210.464 120.232 210.693 120.66 210.786 121.127C210.879 121.593 210.831 122.076 210.649 122.516C210.467 122.955 210.159 123.33 209.763 123.595C209.367 123.859 208.902 124 208.426 124C207.788 124 207.175 123.746 206.724 123.296C206.273 122.845 206.019 122.233 206.019 121.596Z" fill="#293E33" stroke="#293E33" stroke-linecap="round" stroke-linejoin="round"/>
<path d="M208.817 118.515V121.442H207.715C207.715 121.442 208.167 120.165 207.413 119.863C206.658 119.56 205.457 118.812 205.309 118.361L208.817 118.515Z" fill="#8A8A8A"/>
<path d="M180.064 121.596C180.064 121.12 180.206 120.655 180.47 120.26C180.734 119.865 181.11 119.556 181.55 119.374C181.99 119.192 182.474 119.145 182.941 119.238C183.407 119.33 183.836 119.559 184.173 119.896C184.509 120.232 184.739 120.66 184.831 121.127C184.924 121.593 184.877 122.076 184.694 122.516C184.512 122.955 184.204 123.33 183.808 123.595C183.412 123.859 182.947 124 182.471 124C181.833 124 181.221 123.746 180.769 123.296C180.318 122.845 180.064 122.233 180.064 121.596Z" fill="#293E33" stroke="#293E33" stroke-linecap="round" stroke-linejoin="round"/>
<path d="M182.868 118.515V121.442H181.766C181.766 121.442 182.218 120.165 181.463 119.863C180.709 119.56 179.508 118.812 179.36 118.361L182.868 118.515Z" fill="#8A8A8A"/>
<path d="M207.313 109.872L210.309 114.675C210.499 114.976 210.61 115.32 210.634 115.675C210.658 116.03 210.594 116.386 210.447 116.71C210.275 117.09 209.997 117.413 209.647 117.64C209.296 117.866 208.887 117.986 208.47 117.987H178.506" stroke="#293E33" stroke-width="3" stroke-linecap="round" stroke-linejoin="round"/>
<path d="M110.852 73.897H75.5624V123.422H110.852V73.897Z" fill="white" stroke="#293E33" stroke-linecap="round" stroke-linejoin="round"/>
<path d="M110.852 88.0361L105.769 82.0779L94.8426 101.069L87.6339 96.4865L75.5624 123.422H110.852V88.0361Z" fill="#105D5E" stroke="#293E33" stroke-linecap="round" stroke-linejoin="round"/>
<path d="M87.8487 83.1672C87.8497 83.9021 87.6325 84.6208 87.2245 85.2324C86.8164 85.8439 86.2359 86.3207 85.5565 86.6025C84.877 86.8842 84.1291 86.9582 83.4075 86.8151C82.6859 86.672 82.0231 86.3182 81.5029 85.7985C80.9827 85.2789 80.6285 84.6167 80.4853 83.8958C80.342 83.1749 80.4161 82.4278 80.6981 81.749C80.9802 81.0702 81.4575 80.4903 82.0696 80.0827C82.6818 79.675 83.4012 79.458 84.1369 79.4591C85.1209 79.4606 86.0641 79.8517 86.7599 80.5468C87.4557 81.2419 87.8472 82.1842 87.8487 83.1672Z" fill="#105D5E" stroke="#293E33" stroke-linecap="round" stroke-linejoin="round"/>
<path d="M110.852 129.402H75.5624V178.927H110.852V129.402Z" fill="white" stroke="#293E33" stroke-linecap="round" stroke-linejoin="round"/>
<path d="M110.852 143.536L105.769 137.578L94.8426 156.575L87.6339 151.986L75.5624 178.922H110.852V143.536Z" fill="#105D5E" stroke="#293E33" stroke-linecap="round" stroke-linejoin="round"/>
<path d="M87.8487 138.672C87.8487 139.407 87.6305 140.125 87.2218 140.736C86.8131 141.347 86.2322 141.823 85.5527 142.104C84.8731 142.385 84.1254 142.458 83.4042 142.314C82.6829 142.171 82.0206 141.816 81.5009 141.296C80.9813 140.777 80.6277 140.114 80.4849 139.394C80.3421 138.673 80.4165 137.926 80.6987 137.248C80.9809 136.569 81.4582 135.989 82.0702 135.582C82.6822 135.175 83.4015 134.958 84.1369 134.959C84.6248 134.959 85.1079 135.055 85.5586 135.242C86.0093 135.428 86.4187 135.702 86.7635 136.047C87.1082 136.392 87.3815 136.801 87.5677 137.252C87.7539 137.702 87.8494 138.185 87.8487 138.672Z" fill="#105D5E" stroke="#293E33" stroke-linecap="round" stroke-linejoin="round"/>
<path d="M317.344 73.897H282.055V123.422H317.344V73.897Z" fill="white" stroke="#293E33" stroke-linecap="round" stroke-linejoin="round"/>
<path d="M317.35 88.0361L312.267 82.0779L301.341 101.069L294.127 96.4865L282.055 123.422H317.35V88.0361Z" fill="#105D5E" stroke="#293E33" stroke-linecap="round" stroke-linejoin="round"/>
<path d="M294.347 83.1672C294.348 83.9019 294.131 84.6204 293.723 85.2318C293.315 85.8432 292.735 86.32 292.056 86.602C291.377 86.8839 290.629 86.9582 289.908 86.8155C289.186 86.6729 288.524 86.3196 288.003 85.8005C287.483 85.2814 287.128 84.6197 286.984 83.8992C286.84 83.1787 286.914 82.4317 287.195 81.7528C287.476 81.0739 287.953 80.4936 288.564 80.0853C289.175 79.677 289.894 79.4591 290.63 79.4591C291.615 79.4591 292.559 79.8496 293.256 80.5448C293.953 81.2401 294.346 82.1832 294.347 83.1672Z" fill="#105D5E" stroke="#293E33" stroke-linecap="round" stroke-linejoin="round"/>
<path d="M317.344 129.402H282.055V178.927H317.344V129.402Z" fill="white" stroke="#293E33" stroke-linecap="round" stroke-linejoin="round"/>
<path d="M317.35 143.536L312.267 137.578L301.341 156.575L294.127 151.986L282.055 178.922H317.35V143.536Z" fill="#105D5E" stroke="#293E33" stroke-linecap="round" stroke-linejoin="round"/>
<path d="M294.347 138.672C294.347 139.407 294.129 140.125 293.721 140.736C293.312 141.346 292.731 141.822 292.052 142.103C291.373 142.384 290.626 142.458 289.904 142.315C289.183 142.171 288.521 141.818 288.001 141.298C287.481 140.779 287.127 140.117 286.984 139.397C286.84 138.677 286.914 137.93 287.195 137.251C287.477 136.573 287.953 135.993 288.565 135.585C289.176 135.177 289.895 134.959 290.63 134.959C291.616 134.959 292.561 135.35 293.258 136.047C293.955 136.743 294.347 137.688 294.347 138.672Z" fill="#105D5E" stroke="#293E33" stroke-linecap="round" stroke-linejoin="round"/>
<path d="M381.838 181.849C381.838 181.849 381.364 185.903 381.959 187.576C382.554 189.248 386.364 200.692 386.97 210.831C387.576 220.97 388.165 230.274 387.807 230.752C387.449 231.231 385.302 230.989 385.302 230.989H378.142C377.982 230.867 377.869 230.693 377.825 230.497C377.781 230.3 377.807 230.095 377.9 229.916C378.258 229.322 381.722 226.698 382.196 225.861C382.674 225.123 383.045 224.321 383.297 223.479C383.297 223.122 382.46 214.407 379.596 208.68C376.733 202.953 373.032 188.874 372.674 183.758L381.838 181.849Z" fill="white" stroke="#293E33" stroke-linecap="round" stroke-linejoin="round"/>
<path d="M377.9 229.916C378.682 229.097 379.519 228.332 380.406 227.627V228.843H387.906C387.971 229.481 387.937 230.125 387.807 230.752C387.449 231.225 385.302 230.989 385.302 230.989H378.142C377.982 230.867 377.869 230.693 377.825 230.497C377.781 230.3 377.807 230.095 377.9 229.916Z" fill="#105D5E" stroke="#293E33" stroke-linecap="round" stroke-linejoin="round"/>
<path d="M374.199 182.448C374.199 182.448 372.547 194.376 373.726 197.952C374.904 201.528 374.442 207.965 372.768 214.765C371.093 221.565 369.783 225.85 369.783 226.208C369.783 226.566 369.783 229.789 369.425 230.384C369.067 230.978 358.565 230.862 357.86 230.862C357.155 230.862 356.428 230.147 357.023 229.432C357.618 228.717 360.878 227.935 362.993 226.923C365.019 225.971 365.14 225.735 365.14 225.735C365.14 225.735 366.335 211.783 365.856 205.583C365.377 199.382 362.745 186.503 363.224 182.212L374.199 182.448Z" fill="white" stroke="#293E33" stroke-linecap="round" stroke-linejoin="round"/>
<path d="M357.849 230.862C357.133 230.862 356.417 230.147 357.012 229.432C357.496 228.854 359.683 228.233 361.632 227.49L362.029 228.359L369.739 227.776C369.7 228.816 369.612 230.037 369.403 230.384C369.067 230.978 358.565 230.862 357.849 230.862Z" fill="#105D5E" stroke="#293E33" stroke-linecap="round" stroke-linejoin="round"/>
<path d="M380.868 142.001C380.868 142.001 384.944 150.847 385.274 156.217C385.605 161.587 383.363 167.424 383.363 167.424L384.795 182.828C384.795 182.828 380.02 185.81 372.024 185.689C364.028 185.568 360.09 184.259 360.09 184.259C360.09 184.259 359.132 165.553 361.643 156.476C364.154 147.398 363.257 142.469 363.257 142.469C363.257 142.469 374.403 142.931 380.868 142.001Z" fill="#293E33" stroke="#293E33" stroke-linecap="round" stroke-linejoin="round"/>
<path d="M365.707 107.765C365.707 107.765 366.875 111.616 367.321 113.772C367.767 115.929 366.605 120.044 365.08 122.911C363.554 125.777 361.847 128.825 362.657 131.427C363.466 134.029 363.824 135.008 363.824 135.008C363.824 135.008 363.196 141.374 363.273 142.447C363.35 143.519 367.938 144.598 372.514 144.152C377.091 143.706 380.499 142.804 380.857 142.001C381.215 141.198 380.857 136.714 381.485 134.381C382.113 132.049 382.289 121.211 380.857 118.878C379.426 116.545 376.116 112.876 376.116 112.876L373.428 105.795L365.707 107.765Z" fill="#105D5E" stroke="#293E33" stroke-linecap="round" stroke-linejoin="round"/>
<path d="M377.465 114.427C375.792 114.057 374.047 114.171 372.437 114.757C370.68 115.428 368.422 117.167 366.814 118.52C367.327 116.699 367.563 114.944 367.321 113.772C366.875 111.621 365.707 107.765 365.707 107.765L373.417 105.795L376.116 112.876C376.116 112.876 376.667 113.514 377.465 114.427Z" fill="white" stroke="#293E33" stroke-linecap="round" stroke-linejoin="round"/>
<path d="M362.15 93.103C362.15 93.103 361.048 95.9748 360.691 97.2017C360.333 98.4285 359.743 99.6334 359.038 99.7434C358.334 99.8534 357.629 100.426 358.08 101.394C358.538 102.16 359.112 102.851 359.782 103.44C359.782 103.44 360.437 108.089 360.922 108.678C361.406 109.267 363.675 109.228 365.047 108.876C366.418 108.524 369.083 108.078 369.083 108.078C369.083 108.078 369.948 98.7256 369.408 96.7671C368.869 94.8085 366.512 92.0027 365.823 91.6671C365.135 91.3315 362.15 93.103 362.15 93.103Z" fill="white" stroke="#293E33" stroke-linecap="round" stroke-linejoin="round"/>
<path d="M361.61 98.9017C361.566 99.3968 361.709 99.8149 361.93 99.8314C362.15 99.8479 362.37 99.4738 362.414 98.9787C362.458 98.4836 362.321 98.0709 362.095 98.0489C361.869 98.0269 361.66 98.412 361.61 98.9017Z" fill="#293E33"/>
<path d="M363.89 97.6749C363.89 97.6749 362.591 96.1124 361.638 96.6571" stroke="#293E33" stroke-linecap="round" stroke-linejoin="round"/>
<path d="M363.174 103.457C362.494 103.941 361.685 104.212 360.85 104.233" stroke="#293E33" stroke-linecap="round" stroke-linejoin="round"/>
<path d="M383.622 105.988C382.614 99.0722 381.904 94.2584 379.866 91.6836C378.923 90.0993 377.414 88.9314 375.642 88.4157C372.03 87.5465 367.635 88.3112 367.635 88.3112C367.635 88.3112 365.107 85.4669 361.935 87.607C358.763 89.7471 359.925 92.8225 361.384 93.7632C362.478 94.4228 363.632 94.9755 364.832 95.4137L365.35 92.7619C365.35 92.7619 367.789 97.5758 368.004 98.137L364.551 120.275C364.551 120.275 371.611 115.439 373.048 116.567C374.486 117.695 375.879 118.685 375.879 119.868C375.879 121.051 375.681 129.771 375.681 129.771H383.826C383.826 129.771 384.817 114.125 383.622 105.988Z" fill="#293E33" stroke="#293E33" stroke-linecap="round" stroke-linejoin="round"/>
<path d="M331.509 108.584C331.53 108.509 331.567 108.44 331.617 108.38C331.667 108.32 331.729 108.272 331.8 108.238C331.87 108.205 331.947 108.186 332.025 108.184C332.103 108.182 332.18 108.197 332.252 108.227L335.766 109.789L332.004 106.241C331.884 106.148 331.805 106.011 331.785 105.861C331.766 105.71 331.807 105.558 331.9 105.438C331.992 105.317 332.129 105.239 332.28 105.219C332.431 105.199 332.583 105.24 332.704 105.333L336.801 107.886L334.427 104.975C334.349 104.869 334.311 104.738 334.321 104.606C334.332 104.474 334.389 104.35 334.484 104.257C334.578 104.164 334.703 104.108 334.835 104.099C334.967 104.091 335.098 104.13 335.204 104.211L339.929 108.205L339.483 106.461C339.444 106.296 339.469 106.123 339.553 105.975C339.636 105.828 339.771 105.717 339.933 105.664C340.094 105.611 340.269 105.621 340.423 105.691C340.577 105.762 340.7 105.887 340.766 106.043C341.069 106.807 341.642 108.243 341.867 108.706C342.254 109.544 342.494 110.443 342.578 111.363C342.534 111.913 342.534 113.156 342.534 113.156L351.389 120.099L352.072 119.285L354.462 121.552L354.39 122.437L356.56 124.088C356.56 124.088 371.143 116.694 373.043 116.562C374.943 116.43 377.575 119.769 376.435 123.098C375.295 126.426 356.01 131.686 355.376 131.73C354.743 131.774 340.832 115.544 340.832 115.544C339.67 115.111 338.535 114.608 337.434 114.037C336.57 113.525 333.056 112.127 331.927 111.682C331.831 111.647 331.752 111.576 331.707 111.484C331.662 111.392 331.654 111.286 331.685 111.189C331.717 111.091 331.785 111.009 331.875 110.961C331.965 110.912 332.071 110.901 332.169 110.928L335.083 111.621L331.707 109.146C331.623 109.081 331.56 108.994 331.525 108.894C331.49 108.795 331.484 108.687 331.509 108.584Z" fill="#293E33" stroke="#293E33" stroke-linecap="round" stroke-linejoin="round"/>
<path d="M265.848 231.044H348.966C351.956 231.044 354.379 228.623 354.379 225.636V95.6283C354.379 92.6415 351.956 90.2202 348.966 90.2202H265.848C262.858 90.2202 260.435 92.6415 260.435 95.6283V225.636C260.435 228.623 262.858 231.044 265.848 231.044Z" fill="#105D5E" stroke="#293E33" stroke-linecap="round" stroke-linejoin="round"/>
<path d="M311.155 208.724H305.075V220.657H311.155V208.724Z" fill="white" stroke="#293E33" stroke-linecap="round" stroke-linejoin="round"/>
<path d="M311.155 193.281H305.075V205.214H311.155V193.281Z" fill="white" stroke="#293E33" stroke-linecap="round" stroke-linejoin="round"/>
<path d="M311.155 177.833H305.075V189.766H311.155V177.833Z" fill="white" stroke="#293E33" stroke-linecap="round" stroke-linejoin="round"/>
<path d="M311.155 162.39H305.075V174.323H311.155V162.39Z" fill="white" stroke="#293E33" stroke-linecap="round" stroke-linejoin="round"/>
<path d="M311.155 146.947H305.075V158.88H311.155V146.947Z" fill="white" stroke="#293E33" stroke-linecap="round" stroke-linejoin="round"/>
<path d="M311.155 131.504H305.075V143.437H311.155V131.504Z" fill="white" stroke="#293E33" stroke-linecap="round" stroke-linejoin="round"/>
<path d="M311.155 116.056H305.075V127.989H311.155V116.056Z" fill="white" stroke="#293E33" stroke-linecap="round" stroke-linejoin="round"/>
<path d="M311.155 100.613H305.075V112.546H311.155V100.613Z" fill="white" stroke="#293E33" stroke-linecap="round" stroke-linejoin="round"/>
<path d="M340.625 113.693C343.985 112.302 345.581 108.453 344.189 105.096C342.797 101.738 338.944 100.144 335.584 101.535C332.223 102.925 330.627 106.774 332.019 110.132C333.411 113.489 337.264 115.083 340.625 113.693Z" fill="white" stroke="#293E33" stroke-linecap="round" stroke-linejoin="round"/>
<path d="M340.628 127.706C343.989 126.315 345.585 122.466 344.193 119.109C342.801 115.752 338.948 114.157 335.587 115.548C332.227 116.939 330.631 120.788 332.023 124.145C333.415 127.502 337.268 129.097 340.628 127.706Z" fill="white" stroke="#293E33" stroke-linecap="round" stroke-linejoin="round"/>
<path d="M338.712 142.411C342.334 142.078 345.001 138.875 344.668 135.257C344.335 131.638 341.129 128.974 337.506 129.306C333.884 129.639 331.217 132.842 331.55 136.461C331.883 140.079 335.089 142.743 338.712 142.411Z" fill="white" stroke="#293E33" stroke-linecap="round" stroke-linejoin="round"/>
<path d="M265.859 90.2257C264.423 90.2257 263.046 90.7955 262.031 91.8097C261.016 92.8239 260.446 94.1994 260.446 95.6337V225.641C260.446 227.076 261.016 228.451 262.031 229.465C263.046 230.48 264.423 231.049 265.859 231.049H285.618V199.751L266.074 174.488V90.2257H265.859Z" fill="#293E33" stroke="#293E33" stroke-linecap="round" stroke-linejoin="round"/>
<path d="M335.132 210.072V147.739" stroke="#293E33" stroke-linecap="round" stroke-linejoin="round"/>
<path d="M335.132 220.761V215.397" stroke="#293E33" stroke-linecap="round" stroke-linejoin="round"/>
<path d="M341.295 154.572V147.739" stroke="#293E33" stroke-linecap="round" stroke-linejoin="round"/>
<path d="M341.295 220.761V160.343" stroke="#293E33" stroke-linecap="round" stroke-linejoin="round"/>
<path d="M273.431 196.021V217.972C273.431 219.355 274.553 220.475 275.937 220.475H290.261C291.645 220.475 292.766 219.355 292.766 217.972V196.021C292.766 194.638 291.645 193.518 290.261 193.518H275.937C274.553 193.518 273.431 194.638 273.431 196.021Z" fill="white" stroke="#293E33" stroke-linecap="round" stroke-linejoin="round"/>
<path d="M280.623 204.521V209.472H285.58V204.521H280.623Z" fill="white" stroke="#293E33" stroke-linecap="round" stroke-linejoin="round"/>
<path d="M281.857 209.615V216.965H280.1V220.173" stroke="#293E33" stroke-linecap="round" stroke-linejoin="round"/>
<path d="M286.202 220.173V216.767H284.44V209.615" stroke="#293E33" stroke-linecap="round" stroke-linejoin="round"/>
<path d="M283.102 209.797V220.288" stroke="#293E33" stroke-linecap="round" stroke-linejoin="round"/>
<path d="M281.857 204.46V197.11H280.1V193.903" stroke="#293E33" stroke-linecap="round" stroke-linejoin="round"/>
<path d="M286.202 193.903V197.314H284.44V204.46" stroke="#293E33" stroke-linecap="round" stroke-linejoin="round"/>
<path d="M283.102 204.279V193.787" stroke="#293E33" stroke-linecap="round" stroke-linejoin="round"/>
<path d="M273.795 207.002H280.667" stroke="#293E33" stroke-linecap="round" stroke-linejoin="round"/>
<path d="M285.64 207.002H292.331" stroke="#293E33" stroke-linecap="round" stroke-linejoin="round"/>
<path d="M356.29 125.7C356.29 125.7 370.306 117.084 372.189 116.815C374.073 116.545 376.942 119.687 376.044 123.092C375.147 126.498 356.29 133.314 355.641 133.435C354.991 133.556 339.731 118.658 339.731 118.658C338.539 118.312 337.369 117.893 336.228 117.403C335.331 116.952 331.723 115.813 330.572 115.45C330.476 115.42 330.396 115.354 330.347 115.266C330.298 115.178 330.284 115.075 330.308 114.977C330.334 114.882 330.395 114.799 330.478 114.745C330.561 114.691 330.662 114.67 330.76 114.686L333.717 115.164L330.17 112.936C330.081 112.878 330.01 112.795 329.967 112.697C329.924 112.599 329.911 112.491 329.928 112.386C329.944 112.31 329.975 112.238 330.02 112.175C330.066 112.112 330.124 112.06 330.191 112.021C330.258 111.982 330.332 111.957 330.41 111.949C330.487 111.941 330.565 111.949 330.639 111.973L334.257 113.283L330.248 110.009C330.141 109.921 330.069 109.798 330.045 109.662C330.021 109.526 330.046 109.386 330.115 109.267C330.193 109.142 330.315 109.051 330.457 109.012C330.599 108.973 330.75 108.99 330.881 109.058L335.154 111.308L332.571 108.557C332.515 108.497 332.473 108.426 332.448 108.348C332.423 108.27 332.416 108.187 332.427 108.106C332.438 108.025 332.467 107.947 332.512 107.878C332.557 107.81 332.617 107.752 332.687 107.71C332.78 107.655 332.886 107.628 332.994 107.633C333.102 107.638 333.206 107.674 333.293 107.737L338.293 111.379L337.743 109.674C337.713 109.584 337.702 109.489 337.711 109.394C337.72 109.3 337.749 109.209 337.796 109.126C337.842 109.044 337.906 108.972 337.982 108.916C338.058 108.859 338.146 108.82 338.238 108.799C338.386 108.767 338.54 108.785 338.676 108.851C338.812 108.917 338.921 109.026 338.987 109.162C339.345 109.899 340.023 111.286 340.281 111.737C340.728 112.544 341.031 113.423 341.179 114.334C341.179 114.884 341.273 116.127 341.273 116.127L356.29 125.7Z" fill="white" stroke="#293E33" stroke-linecap="round" stroke-linejoin="round"/>
<path d="M348.322 126.833L348.498 126.536L351.312 122.657L356.268 125.678C356.268 125.678 370.284 117.062 372.167 116.793C374.051 116.523 376.92 119.665 376.022 123.07C375.125 126.476 356.29 133.314 355.641 133.435C355.338 133.435 353.069 131.185 348.322 126.833Z" fill="#105D5E" stroke="#293E33" stroke-linecap="round" stroke-linejoin="round"/>
<path d="M353.03 123.697L349.093 128.467L346.824 126.679L350.767 121.794L353.03 123.697Z" fill="#105D5E" stroke="#293E33" stroke-linecap="round" stroke-linejoin="round"/>
<path d="M311.133 31.0618H61.982V58.2286C61.9835 60.7796 62.9989 63.2256 64.805 65.029C66.6112 66.8323 69.0603 67.8453 71.6139 67.8453C73.9952 67.8445 76.2919 66.9624 78.0604 65.3693C79.829 63.7762 80.9442 61.5851 81.1906 59.2189C81.4371 61.5851 82.5522 63.7762 84.3208 65.3693C86.0894 66.9624 88.386 67.8445 90.7674 67.8453C93.1494 67.8446 95.4467 66.9627 97.2162 65.3697C98.9857 63.7767 100.102 61.5855 100.35 59.2189C100.591 61.5884 101.705 63.784 103.474 65.3806C105.243 66.9771 107.542 67.861 109.926 67.861C112.311 67.861 114.61 66.9771 116.379 65.3806C118.148 63.784 119.262 61.5884 119.503 59.2189C119.751 61.5855 120.867 63.7767 122.637 65.3697C124.406 66.9627 126.704 67.8446 129.086 67.8453C131.467 67.8457 133.765 66.964 135.533 65.3707C137.302 63.7774 138.417 61.5855 138.662 59.2189C138.91 61.5855 140.026 63.7767 141.796 65.3697C143.565 66.9627 145.863 67.8446 148.245 67.8453C150.626 67.8445 152.923 66.9624 154.691 65.3693C156.46 63.7762 157.575 61.5851 157.821 59.2189C158.069 61.5845 159.185 63.7746 160.954 65.3666C162.723 66.9586 165.02 67.8396 167.401 67.8396C169.782 67.8396 172.078 66.9586 173.848 65.3666C175.617 63.7746 176.733 61.5845 176.98 59.2189C177.226 61.5855 178.341 63.7774 180.109 65.3707C181.878 66.964 184.176 67.8457 186.557 67.8453C188.939 67.8446 191.237 66.9627 193.006 65.3697C194.776 63.7767 195.892 61.5855 196.14 59.2189C196.381 61.5884 197.494 63.784 199.264 65.3806C201.033 66.9771 203.332 67.861 205.716 67.861C208.1 67.861 210.4 66.9771 212.169 65.3806C213.938 63.784 215.051 61.5884 215.293 59.2189C215.541 61.5845 216.657 63.7746 218.426 65.3666C220.195 66.9586 222.492 67.8396 224.873 67.8396C227.254 67.8396 229.55 66.9586 231.319 65.3666C233.088 63.7746 234.204 61.5845 234.452 59.2189C234.699 61.5851 235.814 63.7762 237.582 65.3693C239.351 66.9624 241.648 67.8445 244.029 67.8453C246.411 67.8446 248.708 66.9627 250.478 65.3697C252.247 63.7767 253.364 61.5855 253.611 59.2189C253.859 61.5845 254.975 63.7746 256.744 65.3666C258.513 66.9586 260.81 67.8396 263.191 67.8396C265.572 67.8396 267.868 66.9586 269.637 65.3666C271.406 63.7746 272.523 61.5845 272.77 59.2189C273.016 61.5855 274.13 63.7774 275.899 65.3707C277.668 66.964 279.965 67.8457 282.347 67.8453C284.729 67.8457 287.026 66.964 288.795 65.3707C290.564 63.7774 291.679 61.5855 291.924 59.2189C292.172 61.5855 293.288 63.7767 295.057 65.3697C296.827 66.9627 299.124 67.8446 301.506 67.8453C303.888 67.8457 306.185 66.964 307.954 65.3707C309.723 63.7774 310.838 61.5855 311.083 59.2189C311.346 61.6646 312.536 63.917 314.41 65.5132C316.283 67.1094 318.697 67.9282 321.156 67.8015C323.615 67.6747 325.932 66.6119 327.631 64.8316C329.33 63.0512 330.282 60.6884 330.292 58.2286V31.0618H311.133Z" fill="#293E33" stroke="#293E33" stroke-linecap="round" stroke-linejoin="round"/>
<path d="M81.2402 26.1434H61.982V44.5847H81.2402V26.1434Z" fill="#105D5E" stroke="#293E33" stroke-linecap="round" stroke-linejoin="round"/>
<path d="M100.399 26.1434H81.1411V44.5847H100.399V26.1434Z" fill="#E5E5E5" stroke="#293E33" stroke-linecap="round" stroke-linejoin="round"/>
<path d="M119.553 26.1434H100.295V44.5847H119.553V26.1434Z" fill="#105D5E" stroke="#293E33" stroke-linecap="round" stroke-linejoin="round"/>
<path d="M138.712 26.1434H119.454V44.5847H138.712V26.1434Z" fill="#E5E5E5" stroke="#293E33" stroke-linecap="round" stroke-linejoin="round"/>
<path d="M157.871 26.1434H138.613V44.5847H157.871V26.1434Z" fill="#105D5E" stroke="#293E33" stroke-linecap="round" stroke-linejoin="round"/>
<path d="M177.03 26.1434H157.772V44.5847H177.03V26.1434Z" fill="#E5E5E5" stroke="#293E33" stroke-linecap="round" stroke-linejoin="round"/>
<path d="M196.184 26.1434H176.925V44.5847H196.184V26.1434Z" fill="#105D5E" stroke="#293E33" stroke-linecap="round" stroke-linejoin="round"/>
<path d="M215.343 26.1434H196.084V44.5847H215.343V26.1434Z" fill="#E5E5E5" stroke="#293E33" stroke-linecap="round" stroke-linejoin="round"/>
<path d="M234.502 26.1434H215.244V44.5847H234.502V26.1434Z" fill="#105D5E" stroke="#293E33" stroke-linecap="round" stroke-linejoin="round"/>
<path d="M253.661 26.1434H234.403V44.5847H253.661V26.1434Z" fill="#E5E5E5" stroke="#293E33" stroke-linecap="round" stroke-linejoin="round"/>
<path d="M272.814 26.1434H253.556V44.5847H272.814V26.1434Z" fill="#105D5E" stroke="#293E33" stroke-linecap="round" stroke-linejoin="round"/>
<path d="M291.973 26.1434H272.715V44.5847H291.973V26.1434Z" fill="#E5E5E5" stroke="#293E33" stroke-linecap="round" stroke-linejoin="round"/>
<path d="M311.133 26.1434H291.874V44.5847H311.133V26.1434Z" fill="#105D5E" stroke="#293E33" stroke-linecap="round" stroke-linejoin="round"/>
<path d="M330.292 26.1434H311.033V44.5847H330.292V26.1434Z" fill="#E5E5E5" stroke="#293E33" stroke-linecap="round" stroke-linejoin="round"/>
<path d="M71.6139 62.9269C69.0593 62.9269 66.6094 61.9131 64.8031 60.1086C62.9968 58.3041 61.982 55.8566 61.982 53.3046V44.5021H81.2567V53.3046C81.2567 54.5692 81.0072 55.8213 80.5225 56.9895C80.0377 58.1576 79.3273 59.2188 78.4317 60.1125C77.5361 61.0061 76.473 61.7147 75.3032 62.1976C74.1333 62.6805 72.8796 62.9283 71.6139 62.9269Z" fill="#105D5E" stroke="#293E33" stroke-linecap="round" stroke-linejoin="round"/>
<path d="M81.1411 44.4857H100.416V53.2882C100.416 55.8401 99.401 58.2876 97.5947 60.0921C95.7884 61.8966 93.3385 62.9104 90.7839 62.9104C89.5191 62.9104 88.2666 62.6615 87.098 62.178C85.9294 61.6944 84.8676 60.9856 83.9732 60.0921C83.0788 59.1986 82.3693 58.1379 81.8853 56.9704C81.4012 55.803 81.1521 54.5518 81.1521 53.2882V44.4857H81.1411Z" fill="white" stroke="#293E33" stroke-linecap="round" stroke-linejoin="round"/>
<path d="M109.926 62.9269C107.372 62.9269 104.922 61.9131 103.116 60.1086C101.309 58.3041 100.295 55.8566 100.295 53.3046V44.5021H119.569V53.3046C119.569 54.5692 119.32 55.8213 118.835 56.9895C118.35 58.1576 117.64 59.2188 116.744 60.1125C115.849 61.0061 114.786 61.7147 113.616 62.1976C112.446 62.6805 111.192 62.9283 109.926 62.9269Z" fill="#105D5E" stroke="#293E33" stroke-linecap="round" stroke-linejoin="round"/>
<path d="M119.454 44.4857H138.728V53.2882C138.728 55.8401 137.714 58.2876 135.907 60.0921C134.101 61.8966 131.651 62.9104 129.097 62.9104C127.832 62.9104 126.579 62.6615 125.411 62.178C124.242 61.6944 123.18 60.9856 122.286 60.0921C121.391 59.1986 120.682 58.1379 120.198 56.9704C119.714 55.803 119.465 54.5518 119.465 53.2882V44.4857H119.454Z" fill="white" stroke="#293E33" stroke-linecap="round" stroke-linejoin="round"/>
<path d="M138.613 44.4857H157.887V53.2882C157.887 55.8401 156.873 58.2876 155.066 60.0921C153.26 61.8966 150.81 62.9104 148.256 62.9104C145.702 62.9133 143.252 61.9031 141.444 60.1018C139.635 58.3006 138.617 55.8557 138.613 53.3047V44.5022V44.4857Z" fill="#105D5E" stroke="#293E33" stroke-linecap="round" stroke-linejoin="round"/>
<path d="M167.398 62.9269C164.845 62.9254 162.396 61.911 160.591 60.1066C158.786 58.3023 157.772 55.8557 157.772 53.3046V44.5021H177.047V53.3046C177.047 54.5696 176.797 55.8222 176.312 56.9907C175.827 58.1592 175.116 59.2207 174.22 60.1144C173.323 61.0082 172.26 61.7166 171.089 62.1992C169.919 62.6818 168.664 62.9291 167.398 62.9269Z" fill="white" stroke="#293E33" stroke-linecap="round" stroke-linejoin="round"/>
<path d="M186.557 62.9269C184.003 62.9269 181.553 61.9131 179.747 60.1086C177.94 58.3041 176.925 55.8566 176.925 53.3046V44.5021H196.2V53.3046C196.2 54.5692 195.951 55.8213 195.466 56.9895C194.981 58.1576 194.271 59.2188 193.375 60.1125C192.48 61.0061 191.416 61.7147 190.247 62.1976C189.077 62.6805 187.823 62.9283 186.557 62.9269Z" fill="#105D5E" stroke="#293E33" stroke-linecap="round" stroke-linejoin="round"/>
<path d="M205.716 62.9269C203.162 62.9269 200.712 61.9131 198.906 60.1086C197.099 58.3041 196.084 55.8566 196.084 53.3046V44.5021H215.359V53.3046C215.359 54.5692 215.11 55.8213 214.625 56.9895C214.14 58.1576 213.43 59.2188 212.534 60.1125C211.639 61.0061 210.576 61.7147 209.406 62.1976C208.236 62.6805 206.982 62.9283 205.716 62.9269Z" fill="white" stroke="#293E33" stroke-linecap="round" stroke-linejoin="round"/>
<path d="M224.875 62.9269C222.321 62.9269 219.871 61.9131 218.065 60.1086C216.258 58.3041 215.244 55.8566 215.244 53.3046V44.5021H234.518V53.3046C234.518 54.5692 234.269 55.8213 233.784 56.9895C233.299 58.1576 232.589 59.2188 231.693 60.1125C230.798 61.0061 229.735 61.7147 228.565 62.1976C227.395 62.6805 226.141 62.9283 224.875 62.9269Z" fill="#105D5E" stroke="#293E33" stroke-linecap="round" stroke-linejoin="round"/>
<path d="M234.403 44.4857H253.677V53.2882C253.677 55.8401 252.663 58.2876 250.856 60.0921C249.05 61.8966 246.6 62.9104 244.045 62.9104C241.491 62.9104 239.041 61.8966 237.235 60.0921C235.428 58.2876 234.414 55.8401 234.414 53.2882V44.4857H234.403Z" fill="white" stroke="#293E33" stroke-linecap="round" stroke-linejoin="round"/>
<path d="M253.556 44.4857H272.831V53.2882C272.831 54.5518 272.582 55.803 272.098 56.9704C271.614 58.1379 270.904 59.1986 270.01 60.0921C269.115 60.9856 268.054 61.6944 266.885 62.178C265.716 62.6615 264.464 62.9104 263.199 62.9104C260.645 62.9104 258.195 61.8966 256.388 60.0921C254.582 58.2876 253.567 55.8401 253.567 53.2882V44.4857H253.556Z" fill="#105D5E" stroke="#293E33" stroke-linecap="round" stroke-linejoin="round"/>
<path d="M282.347 62.9269C279.793 62.9269 277.343 61.9131 275.536 60.1086C273.73 58.3041 272.715 55.8566 272.715 53.3046V44.5021H291.99V53.3046C291.99 54.5692 291.74 55.8213 291.256 56.9895C290.771 58.1576 290.061 59.2188 289.165 60.1125C288.269 61.0061 287.206 61.7147 286.036 62.1976C284.867 62.6805 283.613 62.9283 282.347 62.9269Z" fill="white" stroke="#293E33" stroke-linecap="round" stroke-linejoin="round"/>
<path d="M301.506 62.9269C300.24 62.9291 298.986 62.6818 297.815 62.1992C296.645 61.7166 295.581 61.0082 294.685 60.1144C293.789 59.2207 293.078 58.1592 292.593 56.9907C292.107 55.8222 291.858 54.5696 291.858 53.3046V44.5021H311.133V53.3046C311.133 54.568 310.885 55.8191 310.401 56.9865C309.918 58.1539 309.209 59.2147 308.315 60.1083C307.421 61.0018 306.36 61.7107 305.191 62.1943C304.023 62.678 302.771 62.9269 301.506 62.9269Z" fill="#105D5E" stroke="#293E33" stroke-linecap="round" stroke-linejoin="round"/>
<path d="M320.665 62.9269C318.111 62.9269 315.661 61.9131 313.854 60.1086C312.048 58.3041 311.033 55.8566 311.033 53.3046V44.5021H330.308V53.3046C330.308 54.5692 330.059 55.8213 329.574 56.9895C329.089 58.1576 328.379 59.2188 327.483 60.1125C326.588 61.0061 325.524 61.7147 324.355 62.1976C323.185 62.6805 321.931 62.9283 320.665 62.9269Z" fill="white" stroke="#293E33" stroke-linecap="round" stroke-linejoin="round"/>
<path d="M63.3942 121.073C75.9392 118.115 83.7087 105.558 80.7478 93.0253C77.7869 80.4928 65.2169 72.731 52.6718 75.689C40.1268 78.6469 32.3573 91.2044 35.3182 103.737C38.2791 116.269 50.8491 124.031 63.3942 121.073Z" fill="#293E33" stroke="#293E33" stroke-linecap="round" stroke-linejoin="round"/>
<path d="M56.7888 119.83C69.6786 119.83 80.1278 109.391 80.1278 96.514C80.1278 83.6371 69.6786 73.1984 56.7888 73.1984C43.8991 73.1984 33.4499 83.6371 33.4499 96.514C33.4499 109.391 43.8991 119.83 56.7888 119.83Z" fill="#105D5E" stroke="#293E33" stroke-linecap="round" stroke-linejoin="round"/>
<path d="M56.8164 88.7018C53.7594 88.6874 50.7565 89.5072 48.1317 91.0729C47.0525 91.7745 46.0154 92.5387 45.0258 93.3616C44.7707 93.5985 44.4589 93.7659 44.1204 93.8478C43.782 93.9297 43.4281 93.9233 43.0928 93.8292C42.8363 93.7505 42.6012 93.6146 42.4052 93.4316C42.2091 93.2487 42.0573 93.0236 41.9613 92.7734C41.8652 92.5232 41.8274 92.2544 41.8508 91.9874C41.8741 91.7204 41.958 91.4623 42.096 91.2325C42.3093 90.9084 42.569 90.6174 42.867 90.3687C46.1311 87.4118 50.2614 85.5831 54.6466 85.1533C60.809 84.5371 66.1619 86.4131 70.8098 90.4348C71.0594 90.6116 71.2702 90.8375 71.4293 91.0986C71.5884 91.3597 71.6924 91.6505 71.735 91.9532C71.7771 92.3019 71.7157 92.6552 71.5586 92.9694C71.4015 93.2836 71.1554 93.5448 70.8511 93.7205C70.5467 93.8963 70.1973 93.9789 69.8464 93.9582C69.4954 93.9374 69.1583 93.8141 68.8768 93.6037C68.5134 93.3506 68.1995 93.0535 67.8525 92.7509C64.8841 90.256 61.1567 88.8402 57.279 88.7348L56.8164 88.7018Z" fill="white"/>
<path d="M65.8975 98.5166C65.6323 98.5149 65.3702 98.4605 65.1262 98.3566C64.8823 98.2527 64.6615 98.1013 64.4767 97.9114C62.5192 96.0219 59.9306 94.9235 57.2104 94.828C54.4901 94.7325 51.8307 95.6467 49.7453 97.3942C49.4369 97.6473 49.1395 97.9444 48.8146 98.159C48.4481 98.4319 47.9919 98.5564 47.5374 98.5074C47.0829 98.4584 46.6638 98.2396 46.364 97.8949C46.0671 97.5579 45.9084 97.1214 45.9197 96.6727C45.9309 96.2239 46.1112 95.7959 46.4245 95.4742C47.8819 93.9572 49.6732 92.8006 51.6562 92.0962C53.4902 91.3956 55.4479 91.0758 57.4098 91.1562C59.3716 91.2366 61.2965 91.7156 63.0669 92.5639C64.585 93.2602 65.9654 94.2237 67.1421 95.4082C67.4092 95.666 67.5898 96.0002 67.6588 96.3647C67.7278 96.7293 67.682 97.1063 67.5276 97.4437C67.3969 97.7667 67.171 98.0422 66.8799 98.2339C66.5887 98.4255 66.2461 98.5241 65.8975 98.5166Z" fill="white"/>
<path d="M56.7503 97.2567C57.9389 97.2532 59.1153 97.4959 60.2053 97.9693C61.2953 98.4427 62.2753 99.1367 63.0834 100.007C63.41 100.335 63.5992 100.775 63.6125 101.237C63.6258 101.699 63.4622 102.148 63.155 102.494C62.832 102.843 62.3869 103.054 61.9121 103.084C61.4373 103.114 60.9693 102.96 60.6052 102.654C59.9937 102.117 59.3164 101.661 58.5896 101.295C56.6732 100.514 54.9164 100.948 53.391 102.318C53.1601 102.587 52.8664 102.794 52.5358 102.922C52.2053 103.05 51.8482 103.093 51.4965 103.05C51.1916 103 50.9051 102.871 50.6653 102.676C50.4255 102.482 50.2408 102.228 50.1295 101.94C50.0182 101.652 49.9842 101.34 50.0308 101.035C50.0774 100.729 50.203 100.442 50.3951 100.2C51.2128 99.1943 52.2771 98.4172 53.4846 97.9444C54.5183 97.5061 55.6274 97.2726 56.7503 97.2567Z" fill="white"/>
<path d="M56.8274 107.99C56.5367 107.995 56.2479 107.942 55.9783 107.833C55.7086 107.725 55.4637 107.563 55.2581 107.357C55.0525 107.152 54.8904 106.907 54.7816 106.638C54.6727 106.369 54.6193 106.08 54.6246 105.79C54.6245 105.212 54.852 104.657 55.258 104.245C55.664 103.833 56.2159 103.598 56.7943 103.589C57.0836 103.586 57.3707 103.639 57.6392 103.747C57.9077 103.855 58.1524 104.014 58.3592 104.216C58.5661 104.418 58.7311 104.659 58.8448 104.925C58.9585 105.19 59.0187 105.476 59.0219 105.765C59.0252 106.054 58.9714 106.341 58.8637 106.609C58.7561 106.877 58.5965 107.122 58.3943 107.328C58.192 107.535 57.951 107.7 57.685 107.813C57.419 107.927 57.1332 107.987 56.8439 107.99H56.8274Z" fill="white"/>
<path d="M224.248 126.635H167.822C165.003 126.635 162.717 128.918 162.717 131.735V147.321C162.717 150.138 165.003 152.421 167.822 152.421H224.248C227.067 152.421 229.353 150.138 229.353 147.321V131.735C229.353 128.918 227.067 126.635 224.248 126.635Z" fill="#293E33"/>
<path d="M181.37 146.969V131.884H185.192C185.805 131.879 186.417 131.935 187.02 132.049C187.548 132.15 188.051 132.354 188.501 132.648C188.938 132.94 189.282 133.35 189.493 133.831C189.742 134.455 189.858 135.124 189.834 135.795C189.847 136.324 189.759 136.85 189.575 137.347C189.422 137.747 189.163 138.099 188.826 138.364C188.477 138.626 188.068 138.798 187.637 138.865C188.171 138.932 188.678 139.139 189.107 139.465C189.512 139.784 189.823 140.209 190.005 140.692C190.217 141.282 190.317 141.907 190.302 142.535C190.315 143.205 190.216 143.872 190.01 144.51C189.842 145.031 189.551 145.504 189.162 145.891C188.77 146.261 188.3 146.537 187.785 146.699C187.17 146.889 186.529 146.98 185.885 146.969H181.37ZM184.47 137.974H185.236C185.652 137.998 186.069 137.918 186.447 137.743C186.711 137.581 186.907 137.329 186.998 137.033C187.112 136.655 187.166 136.261 187.158 135.867C187.174 135.486 187.093 135.107 186.921 134.766C186.767 134.486 186.516 134.271 186.216 134.161C185.832 134.03 185.427 133.97 185.021 133.985H184.47V137.974ZM184.47 144.807H185.329C185.621 144.841 185.917 144.806 186.193 144.706C186.47 144.606 186.719 144.442 186.921 144.229C187.251 143.716 187.405 143.11 187.361 142.502C187.378 142.018 187.307 141.535 187.152 141.077C187.034 140.744 186.799 140.464 186.491 140.29C186.11 140.108 185.69 140.023 185.269 140.042H184.47V144.807Z" fill="white"/>
<path d="M196.321 147.189C195.396 147.241 194.475 147.039 193.656 146.606C193.026 146.216 192.553 145.615 192.323 144.911C192.051 144.039 191.922 143.129 191.943 142.215V131.884H194.983V142.628C194.983 142.996 195.01 143.364 195.066 143.728C195.103 144.05 195.233 144.354 195.44 144.603C195.553 144.721 195.691 144.812 195.843 144.87C195.995 144.928 196.159 144.951 196.321 144.939C196.488 144.954 196.656 144.931 196.813 144.873C196.971 144.815 197.113 144.723 197.23 144.603C197.434 144.353 197.56 144.049 197.593 143.728C197.642 143.364 197.666 142.996 197.665 142.628V131.884H200.705V142.199C200.726 143.112 200.597 144.023 200.325 144.895C200.095 145.599 199.623 146.199 198.992 146.589C198.173 147.029 197.25 147.236 196.321 147.189Z" fill="white"/>
<path d="M204.846 146.969V140.989L201.9 131.884H204.791L206.416 137.193L207.925 131.884H210.722L207.815 140.989V146.969H204.846Z" fill="white"/>
<path d="M139.692 168.645L168.5 144.29C168.71 144.111 168.857 143.871 168.921 143.603C168.985 143.335 168.961 143.053 168.853 142.8C168.746 142.546 168.56 142.334 168.323 142.193C168.086 142.052 167.81 141.991 167.536 142.017L130.088 145.714C129.813 145.736 129.553 145.845 129.345 146.025C129.137 146.205 128.991 146.447 128.93 146.715C128.868 146.983 128.894 147.264 129.003 147.516C129.113 147.769 129.3 147.98 129.537 148.119L137.302 152.657L112.328 163.231L114.85 169.173L139.588 158.72L137.605 167.407C137.557 167.667 137.591 167.935 137.7 168.175C137.809 168.416 137.99 168.617 138.217 168.752C138.445 168.887 138.708 168.949 138.972 168.93C139.235 168.91 139.487 168.811 139.692 168.645Z" fill="#293E33"/>
<path d="M140.105 166.18L168.896 141.808C169.106 141.63 169.254 141.389 169.318 141.121C169.381 140.853 169.357 140.572 169.25 140.319C169.142 140.065 168.957 139.852 168.72 139.712C168.483 139.571 168.207 139.509 167.932 139.536L130.484 143.233C130.212 143.257 129.953 143.366 129.747 143.546C129.54 143.725 129.396 143.966 129.335 144.232C129.273 144.499 129.298 144.778 129.406 145.03C129.514 145.281 129.698 145.492 129.934 145.632L137.699 150.176L112.713 160.75L115.235 166.692L139.973 156.239L137.99 164.92C137.93 165.187 137.955 165.466 138.062 165.717C138.17 165.968 138.354 166.178 138.589 166.318C138.824 166.458 139.097 166.52 139.37 166.496C139.642 166.471 139.9 166.36 140.105 166.18Z" fill="white" stroke="#293E33" stroke-linecap="round" stroke-linejoin="round"/>
</g>
<defs>
<clipPath id="clip0_4_1906">
<rect width="400" height="244" fill="white"/>
</clipPath>
</defs>
</svg>
