<svg width="28" height="28" viewBox="0 0 28 28" fill="none" xmlns="http://www.w3.org/2000/svg">
<path d="M3 3.94213C3 3.69205 3.09934 3.45221 3.27618 3.27538C3.45301 3.09855 3.69284 2.99921 3.94292 2.99921H4.64446C5.83883 2.99921 6.55545 3.80258 6.96405 4.54937C7.23687 5.04724 7.43425 5.6243 7.58889 6.14731C7.63072 6.14401 7.67266 6.14233 7.71461 6.14228H23.4275C24.471 6.14228 25.2253 7.14052 24.9387 8.14505L22.6405 16.2026C22.4344 16.9254 21.9985 17.5613 21.3987 18.0141C20.7989 18.4669 20.0679 18.7119 19.3163 18.7121H11.8383C11.0808 18.7121 10.3443 18.4634 9.74193 18.0041C9.13956 17.5448 8.70468 16.9004 8.50416 16.17L7.54866 12.6849L5.96455 7.3442L5.96329 7.33414C5.76716 6.62129 5.58361 5.9537 5.30953 5.45584C5.04677 4.9718 4.83556 4.88505 4.64571 4.88505H3.94292C3.69284 4.88505 3.45301 4.78571 3.27618 4.60888C3.09934 4.43204 3 4.19221 3 3.94213ZM9.37793 12.2273L10.3221 15.6708C10.5107 16.3523 11.1305 16.8262 11.8383 16.8262H19.3163C19.6579 16.8262 19.9902 16.7149 20.2629 16.5092C20.5356 16.3034 20.7338 16.0144 20.8275 15.6859L23.0113 8.02813H8.13579L9.36033 12.1606L9.37793 12.2273ZM13.6865 22.4863C13.6865 23.1532 13.4215 23.7927 12.95 24.2643C12.4784 24.7358 11.8389 25.0007 11.172 25.0007C10.5051 25.0007 9.86556 24.7358 9.39401 24.2643C8.92245 23.7927 8.65754 23.1532 8.65754 22.4863C8.65754 21.8194 8.92245 21.1798 9.39401 20.7083C9.86556 20.2367 10.5051 19.9718 11.172 19.9718C11.8389 19.9718 12.4784 20.2367 12.95 20.7083C13.4215 21.1798 13.6865 21.8194 13.6865 22.4863ZM11.8006 22.4863C11.8006 22.3196 11.7344 22.1597 11.6165 22.0418C11.4986 21.9239 11.3387 21.8577 11.172 21.8577C11.0053 21.8577 10.8454 21.9239 10.7275 22.0418C10.6096 22.1597 10.5434 22.3196 10.5434 22.4863C10.5434 22.653 10.6096 22.8129 10.7275 22.9308C10.8454 23.0487 11.0053 23.1149 11.172 23.1149C11.3387 23.1149 11.4986 23.0487 11.6165 22.9308C11.7344 22.8129 11.8006 22.653 11.8006 22.4863ZM22.4871 22.4863C22.4871 23.1532 22.2222 23.7927 21.7506 24.2643C21.2791 24.7358 20.6395 25.0007 19.9726 25.0007C19.3057 25.0007 18.6662 24.7358 18.1946 24.2643C17.7231 23.7927 17.4582 23.1532 17.4582 22.4863C17.4582 21.8194 17.7231 21.1798 18.1946 20.7083C18.6662 20.2367 19.3057 19.9718 19.9726 19.9718C20.6395 19.9718 21.2791 20.2367 21.7506 20.7083C22.2222 21.1798 22.4871 21.8194 22.4871 22.4863ZM20.6012 22.4863C20.6012 22.3196 20.535 22.1597 20.4171 22.0418C20.2992 21.9239 20.1393 21.8577 19.9726 21.8577C19.8059 21.8577 19.646 21.9239 19.5281 22.0418C19.4102 22.1597 19.344 22.3196 19.344 22.4863C19.344 22.653 19.4102 22.8129 19.5281 22.9308C19.646 23.0487 19.8059 23.1149 19.9726 23.1149C20.1393 23.1149 20.2992 23.0487 20.4171 22.9308C20.535 22.8129 20.6012 22.653 20.6012 22.4863Z" fill="#105D5E"/>
</svg>
