<svg width="27" height="26" viewBox="0 0 27 26" fill="none" xmlns="http://www.w3.org/2000/svg">
<g clip-path="url(#clip0_171_1446)">
<path d="M20.7223 21.6667H12.0556V15.8889H10.6112V21.6667H6.27782V15.8889H4.83337V21.6667C4.83337 22.0498 4.98556 22.4172 5.25644 22.6881C5.52733 22.959 5.89473 23.1111 6.27782 23.1111H20.7223C21.1054 23.1111 21.4728 22.959 21.7436 22.6881C22.0145 22.4172 22.1667 22.0498 22.1667 21.6667V15.8889H20.7223V21.6667Z" fill="#105D5E"/>
<path d="M24.9039 9.58392L21.9572 3.69058C21.8377 3.44993 21.6533 3.24741 21.4249 3.10578C21.1966 2.96416 20.9332 2.88906 20.6645 2.88892H6.33558C6.06685 2.88906 5.80349 2.96416 5.57511 3.10578C5.34673 3.24741 5.16239 3.44993 5.0428 3.69058L2.09614 9.58392C1.99553 9.78577 1.94359 10.0084 1.94447 10.2339V12.4584C1.94381 12.7959 2.06135 13.1229 2.27669 13.3828C2.59494 13.7476 2.98801 14.0397 3.42917 14.239C3.87032 14.4384 4.34924 14.5405 4.83336 14.5384C5.6233 14.5396 6.38916 14.2664 7.00002 13.7656C7.61089 14.2667 8.37657 14.5406 9.16669 14.5406C9.95681 14.5406 10.7225 14.2667 11.3334 13.7656C11.9442 14.2667 12.7099 14.5406 13.5 14.5406C14.2901 14.5406 15.0558 14.2667 15.6667 13.7656C16.2776 14.2667 17.0432 14.5406 17.8334 14.5406C18.6235 14.5406 19.3892 14.2667 20 13.7656C20.6819 14.3255 21.5543 14.5992 22.4338 14.5291C23.3133 14.4591 24.1314 14.0508 24.7161 13.39C24.9341 13.1312 25.0542 12.804 25.0556 12.4656V10.2339C25.0565 10.0084 25.0045 9.78577 24.9039 9.58392ZM11.3334 10.4V11.4978L10.7411 12.2778C10.5593 12.5256 10.3217 12.7271 10.0476 12.866C9.77342 13.0049 9.47041 13.0772 9.16308 13.0772C8.85575 13.0772 8.55274 13.0049 8.27858 12.866C8.00442 12.7271 7.76682 12.5256 7.58502 12.2778L7.00002 11.4689V10.4L8.87058 4.33336H12.0556L11.3334 10.4ZM20 11.4689L19.415 12.2778C19.2332 12.5256 18.9956 12.7271 18.7215 12.866C18.4473 13.0049 18.1443 13.0772 17.837 13.0772C17.5296 13.0772 17.2266 13.0049 16.9525 12.866C16.6783 12.7271 16.4407 12.5256 16.2589 12.2778L15.6667 11.4689V10.4L14.9445 4.33336H18.1584L20 10.4V11.4689Z" fill="#105D5E"/>
</g>
<defs>
<clipPath id="clip0_171_1446">
<rect width="26" height="26" fill="white" transform="translate(0.5)"/>
</clipPath>
</defs>
</svg>
