<svg width="18" height="18" viewBox="0 0 18 18" fill="none" xmlns="http://www.w3.org/2000/svg">
<path fill-rule="evenodd" clip-rule="evenodd" d="M4.62498 3.37495C4.62498 3.70647 4.49328 4.02441 4.25886 4.25883C4.02444 4.49325 3.7065 4.62495 3.37498 4.62495C3.04345 4.62495 2.72551 4.49325 2.49109 4.25883C2.25667 4.02441 2.12498 3.70647 2.12498 3.37495C2.12498 3.04343 2.25667 2.72548 2.49109 2.49106C2.72551 2.25664 3.04345 2.12495 3.37498 2.12495C3.7065 2.12495 4.02444 2.25664 4.25886 2.49106C4.49328 2.72548 4.62498 3.04343 4.62498 3.37495ZM4.31248 6.35745C5.02505 6.13345 5.63387 5.66173 6.02872 5.02767C6.42357 4.39362 6.57835 3.63914 6.46505 2.90084C6.35174 2.16253 5.97783 1.4892 5.41101 1.00273C4.84419 0.516269 4.12192 0.248828 3.37498 0.248828C2.62803 0.248828 1.90576 0.516269 1.33894 1.00273C0.772124 1.4892 0.398214 2.16253 0.284905 2.90084C0.171596 3.63914 0.326378 4.39362 0.72123 5.02767C1.11608 5.66173 1.7249 6.13345 2.43748 6.35745V12.1249C2.43748 13.0366 2.79964 13.911 3.4443 14.5556C4.08895 15.2003 4.96329 15.5624 5.87498 15.5624H6.66123L6.07373 16.1499C5.98423 16.2365 5.91286 16.34 5.86378 16.4544C5.8147 16.5688 5.78889 16.6918 5.78787 16.8163C5.78685 16.9407 5.81063 17.0642 5.85782 17.1794C5.90501 17.2946 5.97467 17.3992 6.06274 17.4872C6.15081 17.5752 6.25551 17.6447 6.37075 17.6918C6.48599 17.7389 6.60945 17.7626 6.73393 17.7614C6.85841 17.7603 6.98141 17.7344 7.09577 17.6852C7.21012 17.636 7.31354 17.5645 7.39997 17.4749L9.58748 15.2874L10.25 14.6249L9.58748 13.9624L7.39997 11.7749C7.31317 11.6874 7.20987 11.6179 7.09606 11.5704C6.98224 11.523 6.86016 11.4986 6.73685 11.4986C6.61355 11.4986 6.49146 11.523 6.37765 11.5704C6.26383 11.6179 6.16054 11.6874 6.07373 11.7749C5.89816 11.9507 5.79955 12.189 5.79955 12.4374C5.79955 12.6859 5.89816 12.9242 6.07373 13.0999L6.66123 13.6874H5.87498C5.01248 13.6874 4.31248 12.9874 4.31248 12.1249V6.35745ZM10.6 0.524948C10.6858 0.432839 10.7893 0.358962 10.9043 0.307722C11.0193 0.256482 11.1434 0.228929 11.2693 0.226708C11.3952 0.224487 11.5202 0.247643 11.637 0.294795C11.7537 0.341946 11.8598 0.412126 11.9488 0.50115C12.0378 0.590173 12.108 0.696216 12.1551 0.812951C12.2023 0.929686 12.2254 1.05472 12.2232 1.1806C12.221 1.30648 12.1934 1.43062 12.1422 1.54562C12.091 1.66062 12.0171 1.76412 11.925 1.84995L11.3375 2.43745H12.125C13.0367 2.43745 13.911 2.79961 14.5557 3.44427C15.2003 4.08892 15.5625 4.96327 15.5625 5.87495V11.6424C16.275 11.8664 16.8839 12.3382 17.2787 12.9722C17.6736 13.6063 17.8284 14.3608 17.715 15.0991C17.6017 15.8374 17.2278 16.5107 16.661 16.9972C16.0942 17.4836 15.3719 17.7511 14.625 17.7511C13.878 17.7511 13.1558 17.4836 12.5889 16.9972C12.0221 16.5107 11.6482 15.8374 11.5349 15.0991C11.4216 14.3608 11.5764 13.6063 11.9712 12.9722C12.3661 12.3382 12.9749 11.8664 13.6875 11.6424V5.87495C13.6875 5.01245 12.9875 4.31245 12.125 4.31245H11.3375L11.925 4.89995C12.0171 4.98577 12.091 5.08928 12.1422 5.20428C12.1934 5.31927 12.221 5.44342 12.2232 5.56929C12.2254 5.69517 12.2023 5.82021 12.1551 5.93694C12.108 6.05368 12.0378 6.15972 11.9488 6.24875C11.8598 6.33777 11.7537 6.40795 11.637 6.4551C11.5202 6.50225 11.3952 6.52541 11.2693 6.52319C11.1434 6.52097 11.0193 6.49341 10.9043 6.44217C10.7893 6.39093 10.6858 6.31706 10.6 6.22495L8.41248 4.03745L7.74998 3.37495L8.41248 2.71245L10.6 0.524948ZM14.625 15.8749C14.9565 15.8749 15.2744 15.7433 15.5089 15.5088C15.7433 15.2744 15.875 14.9565 15.875 14.6249C15.875 14.2934 15.7433 13.9755 15.5089 13.7411C15.2744 13.5066 14.9565 13.3749 14.625 13.3749C14.2935 13.3749 13.9755 13.5066 13.7411 13.7411C13.5067 13.9755 13.375 14.2934 13.375 14.6249C13.375 14.9565 13.5067 15.2744 13.7411 15.5088C13.9755 15.7433 14.2935 15.8749 14.625 15.8749Z" fill="#105D5E"/>
</svg>
