<svg width="44" height="44" viewBox="0 0 44 44" fill="none" xmlns="http://www.w3.org/2000/svg">
<rect width="44" height="44" rx="8" fill="#F3F3F3"/>
<path d="M12.7314 21.5926V11M31.2685 32.1852V28.213M12.7314 32.1852V26.8889M31.2685 22.9167V11M22 14.9722V11M22 32.1852V20.2685" stroke="#767F7D" stroke-linecap="round"/>
<path d="M12.7315 26.8888C14.194 26.8888 15.3796 25.7032 15.3796 24.2407C15.3796 22.7781 14.194 21.5925 12.7315 21.5925C11.2689 21.5925 10.0833 22.7781 10.0833 24.2407C10.0833 25.7032 11.2689 26.8888 12.7315 26.8888Z" stroke="#767F7D" stroke-linecap="round"/>
<path d="M22 20.2685C23.4625 20.2685 24.6482 19.0828 24.6482 17.6203C24.6482 16.1578 23.4625 14.9722 22 14.9722C20.5375 14.9722 19.3519 16.1578 19.3519 17.6203C19.3519 19.0828 20.5375 20.2685 22 20.2685Z" stroke="#767F7D" stroke-linecap="round"/>
<path d="M31.2685 28.213C32.731 28.213 33.9167 27.0274 33.9167 25.5649C33.9167 24.1024 32.731 22.9167 31.2685 22.9167C29.806 22.9167 28.6204 24.1024 28.6204 25.5649C28.6204 27.0274 29.806 28.213 31.2685 28.213Z" stroke="#767F7D" stroke-linecap="round"/>
</svg>
