<svg width="26" height="26" viewBox="0 0 26 26" fill="none" xmlns="http://www.w3.org/2000/svg">
<path d="M13 0.915405L23.465 6.95824V19.0417L13 25.0846L2.53503 19.0417V6.95824L13 0.915405ZM13 3.41791L4.7017 8.20841V17.7916L13 22.5821L21.2984 17.7916V8.20841L13 3.41791ZM13 9.74999C12.1381 9.74999 11.3114 10.0924 10.7019 10.7019C10.0924 11.3114 9.75003 12.138 9.75003 13C9.75003 13.8619 10.0924 14.6886 10.7019 15.2981C11.3114 15.9076 12.1381 16.25 13 16.25C13.862 16.25 14.6886 15.9076 15.2981 15.2981C15.9076 14.6886 16.25 13.8619 16.25 13C16.25 12.138 15.9076 11.3114 15.2981 10.7019C14.6886 10.0924 13.862 9.74999 13 9.74999ZM7.58337 13C7.58337 11.5634 8.15405 10.1856 9.16987 9.16983C10.1857 8.154 11.5634 7.58332 13 7.58332C14.4366 7.58332 15.8144 8.154 16.8302 9.16983C17.846 10.1856 18.4167 11.5634 18.4167 13C18.4167 14.4366 17.846 15.8143 16.8302 16.8302C15.8144 17.846 14.4366 18.4167 13 18.4167C11.5634 18.4167 10.1857 17.846 9.16987 16.8302C8.15405 15.8143 7.58337 14.4366 7.58337 13Z" fill="#105D5E"/>
</svg>
